<?xml version="1.0" encoding="UTF-8" standalone="no"?>
<!DOCTYPE svg PUBLIC "-//W3C//DTD SVG 1.1//EN"
 "http://www.w3.org/Graphics/SVG/1.1/DTD/svg11.dtd">
<!-- Generated by graphviz version 2.40.1 (20161225.0304)
 -->
<!-- Title: largeRelationshipsDiagram Pages: 1 -->
<svg width="247pt" height="224pt"
 viewBox="0.00 0.00 247.00 224.20" xmlns="http://www.w3.org/2000/svg" xmlns:xlink="http://www.w3.org/1999/xlink">
<g id="graph0" class="graph" transform="scale(1 1) rotate(0) translate(4 220.2)">
<title>largeRelationshipsDiagram</title>
<polygon fill="#ffffff" stroke="transparent" points="-4,4 -4,-220.2 243,-220.2 243,4 -4,4"/>
<text text-anchor="middle" x="72.4936" y="-7.3" font-family="Helvetica,sans-Serif" font-size="11.00" fill="#000000">Generated by SchemaSpy</text>
<!-- media -->
<g id="node1" class="node">
<title>media</title>
<g id="a_node1"><a xlink:href="../../tables/media.html" xlink:title="media" target="_top">
<polygon fill="#ffffff" stroke="transparent" points="8,-38.2 8,-212.2 111,-212.2 111,-38.2 8,-38.2"/>
<polygon fill="#f5f5f5" stroke="transparent" points="8.5,-189.2 8.5,-212.2 111.5,-212.2 111.5,-189.2 8.5,-189.2"/>
<polygon fill="none" stroke="#000000" points="8.5,-189.2 8.5,-212.2 111.5,-212.2 111.5,-189.2 8.5,-189.2"/>
<text text-anchor="start" x="13.5" y="-197.8" font-family="Helvetica,sans-Serif" font-weight="bold" font-size="11.00" fill="#000000">media</text>
<text text-anchor="start" x="76.5437" y="-197.3" font-family="Helvetica,sans-Serif" font-size="11.00" fill="#000000">[table]</text>
<polygon fill="none" stroke="#000000" points="8.5,-167.2 8.5,-189.2 111.5,-189.2 111.5,-167.2 8.5,-167.2"/>
<image xlink:href="../../images/primaryKeys.png" width="11px" height="12px" preserveAspectRatio="xMinYMin meet" x="13.5" y="-184.2"/>
<text text-anchor="start" x="28.5" y="-174.3" font-family="Helvetica,sans-Serif" font-size="11.00" fill="#000000">id</text>
<polygon fill="none" stroke="#000000" points="8.5,-145.2 8.5,-167.2 111.5,-167.2 111.5,-145.2 8.5,-145.2"/>
<text text-anchor="start" x="28.5" y="-152.3" font-family="Helvetica,sans-Serif" font-size="11.00" fill="#000000">titre</text>
<polygon fill="none" stroke="#000000" points="8.5,-123.2 8.5,-145.2 111.5,-145.2 111.5,-123.2 8.5,-123.2"/>
<text text-anchor="start" x="28.5" y="-130.3" font-family="Helvetica,sans-Serif" font-size="11.00" fill="#000000">dureeEmprunt</text>
<polygon fill="none" stroke="#000000" points="8.5,-101.2 8.5,-123.2 111.5,-123.2 111.5,-101.2 8.5,-101.2"/>
<text text-anchor="start" x="28.5" y="-108.3" font-family="Helvetica,sans-Serif" font-size="11.00" fill="#000000">statut</text>
<polygon fill="none" stroke="#000000" points="8.5,-79.2 8.5,-101.2 111.5,-101.2 111.5,-79.2 8.5,-79.2"/>
<text text-anchor="start" x="28.5" y="-86.3" font-family="Helvetica,sans-Serif" font-size="11.00" fill="#000000">dateCreation</text>
<polygon fill="none" stroke="#000000" points="8.5,-57.2 8.5,-79.2 111.5,-79.2 111.5,-57.2 8.5,-57.2"/>
<text text-anchor="start" x="28.5" y="-64.3" font-family="Helvetica,sans-Serif" font-size="11.00" fill="#000000">type</text>
<polygon fill="#ffffff" stroke="transparent" points="8.5,-38.2 8.5,-57.2 36.5,-57.2 36.5,-38.2 8.5,-38.2"/>
<polygon fill="none" stroke="#000000" points="8.5,-38.2 8.5,-57.2 36.5,-57.2 36.5,-38.2 8.5,-38.2"/>
<text text-anchor="start" x="11.5" y="-44.3" font-family="Helvetica,sans-Serif" font-size="11.00" fill="#000000"> &#160;</text>
<polygon fill="#ffffff" stroke="transparent" points="36.5,-38.2 36.5,-57.2 82.5,-57.2 82.5,-38.2 36.5,-38.2"/>
<polygon fill="none" stroke="#000000" points="36.5,-38.2 36.5,-57.2 82.5,-57.2 82.5,-38.2 36.5,-38.2"/>
<text text-anchor="start" x="47.1105" y="-44.3" font-family="Helvetica,sans-Serif" font-size="11.00" fill="#000000">0 rows</text>
<polygon fill="#ffffff" stroke="transparent" points="82.5,-38.2 82.5,-57.2 111.5,-57.2 111.5,-38.2 82.5,-38.2"/>
<polygon fill="none" stroke="#000000" points="82.5,-38.2 82.5,-57.2 111.5,-57.2 111.5,-38.2 82.5,-38.2"/>
<text text-anchor="start" x="92.9053" y="-44.3" font-family="Helvetica,sans-Serif" font-size="11.00" fill="#000000">1 &gt;</text>
</a>
</g>
</g>
<!-- livre -->
<g id="node2" class="node">
<title>livre</title>
<g id="a_node2"><a xlink:href="../../tables/livre.html" xlink:title="livre" target="_top">
<polygon fill="#ffffff" stroke="transparent" points="160,-82.2 160,-212.2 231,-212.2 231,-82.2 160,-82.2"/>
<polygon fill="#f5f5f5" stroke="transparent" points="160.5,-189.2 160.5,-212.2 231.5,-212.2 231.5,-189.2 160.5,-189.2"/>
<polygon fill="none" stroke="#000000" points="160.5,-189.2 160.5,-212.2 231.5,-212.2 231.5,-189.2 160.5,-189.2"/>
<text text-anchor="start" x="165.4207" y="-197.8" font-family="Helvetica,sans-Serif" font-weight="bold" font-size="11.00" fill="#000000">livre</text>
<text text-anchor="start" x="196.5437" y="-197.3" font-family="Helvetica,sans-Serif" font-size="11.00" fill="#000000">[table]</text>
<polygon fill="none" stroke="#000000" points="160.5,-167.2 160.5,-189.2 231.5,-189.2 231.5,-167.2 160.5,-167.2"/>
<image xlink:href="../../images/primaryKeys.png" width="11px" height="12px" preserveAspectRatio="xMinYMin meet" x="165.5" y="-184.2"/>
<text text-anchor="start" x="180.5" y="-174.3" font-family="Helvetica,sans-Serif" font-size="11.00" fill="#000000">id</text>
<polygon fill="none" stroke="#000000" points="160.5,-145.2 160.5,-167.2 231.5,-167.2 231.5,-145.2 160.5,-145.2"/>
<text text-anchor="start" x="180.5" y="-152.3" font-family="Helvetica,sans-Serif" font-size="11.00" fill="#000000">isbn</text>
<polygon fill="none" stroke="#000000" points="160.5,-123.2 160.5,-145.2 231.5,-145.2 231.5,-123.2 160.5,-123.2"/>
<text text-anchor="start" x="180.5" y="-130.3" font-family="Helvetica,sans-Serif" font-size="11.00" fill="#000000">auteur</text>
<polygon fill="none" stroke="#000000" points="160.5,-101.2 160.5,-123.2 231.5,-123.2 231.5,-101.2 160.5,-101.2"/>
<text text-anchor="start" x="180.5" y="-108.3" font-family="Helvetica,sans-Serif" font-size="11.00" fill="#000000">nbPages</text>
<polygon fill="#ffffff" stroke="transparent" points="160.5,-82.2 160.5,-101.2 181.5,-101.2 181.5,-82.2 160.5,-82.2"/>
<polygon fill="none" stroke="#000000" points="160.5,-82.2 160.5,-101.2 181.5,-101.2 181.5,-82.2 160.5,-82.2"/>
<text text-anchor="start" x="163.2027" y="-88.3" font-family="Helvetica,sans-Serif" font-size="11.00" fill="#000000">&lt; 1</text>
<polygon fill="#ffffff" stroke="transparent" points="181.5,-82.2 181.5,-101.2 219.5,-101.2 219.5,-82.2 181.5,-82.2"/>
<polygon fill="none" stroke="#000000" points="181.5,-82.2 181.5,-101.2 219.5,-101.2 219.5,-82.2 181.5,-82.2"/>
<text text-anchor="start" x="184.3053" y="-88.3" font-family="Helvetica,sans-Serif" font-size="11.00" fill="#000000">0 rows</text>
<polygon fill="#ffffff" stroke="transparent" points="219.5,-82.2 219.5,-101.2 231.5,-101.2 231.5,-82.2 219.5,-82.2"/>
<polygon fill="none" stroke="#000000" points="219.5,-82.2 219.5,-101.2 231.5,-101.2 231.5,-82.2 219.5,-82.2"/>
<text text-anchor="start" x="222.4431" y="-88.3" font-family="Helvetica,sans-Serif" font-size="11.00" fill="#000000"> &#160;</text>
</a>
</g>
</g>
<!-- livre&#45;&gt;media -->
<g id="edge1" class="edge">
<title>livre:w&#45;&gt;media:e</title>
<path fill="none" stroke="#000000" d="M149.7573,-178.2C136.1063,-178.2 129.1944,-178.2 111.5,-178.2"/>
<polygon fill="#000000" stroke="#000000" points="159.7,-174.2 159.7,-182.2 158.1,-182.2 158.1,-174.2 159.7,-174.2"/>
<polyline fill="none" stroke="#000000" points="160.5,-178.2 156.5,-178.2 "/>
<ellipse fill="none" stroke="#000000" cx="153.3" cy="-178.2001" rx="3.2" ry="3.2"/>
</g>
</g>
</svg>
