<?xml version="1.0" encoding="UTF-8" standalone="no"?>
<!DOCTYPE svg PUBLIC "-//W3C//DTD SVG 1.1//EN"
 "http://www.w3.org/Graphics/SVG/1.1/DTD/svg11.dtd">
<!-- Generated by graphviz version 2.40.1 (20161225.0304)
 -->
<!-- Title: compactRelationshipsDiagram Pages: 1 -->
<svg width="295pt" height="237pt"
 viewBox="0.00 0.00 295.00 237.20" xmlns="http://www.w3.org/2000/svg" xmlns:xlink="http://www.w3.org/1999/xlink">
<g id="graph0" class="graph" transform="scale(1 1) rotate(0) translate(4 233.2)">
<title>compactRelationshipsDiagram</title>
<polygon fill="#ffffff" stroke="transparent" points="-4,4 -4,-233.2 291,-233.2 291,4 -4,4"/>
<text text-anchor="middle" x="72.4936" y="-7.3" font-family="Helvetica,sans-Serif" font-size="11.00" fill="#000000">Generated by SchemaSpy</text>
<!-- magazine -->
<g id="node1" class="node">
<title>magazine</title>
<g id="a_node1"><a xlink:href="../../tables/magazine.html" xlink:title="magazine" target="_top">
<polygon fill="#ffffff" stroke="transparent" points="160,-142.2 160,-225.2 279,-225.2 279,-142.2 160,-142.2"/>
<polygon fill="#f5f5f5" stroke="transparent" points="160.5,-201.7 160.5,-224.7 279.5,-224.7 279.5,-201.7 160.5,-201.7"/>
<polygon fill="none" stroke="#000000" points="160.5,-201.7 160.5,-224.7 279.5,-224.7 279.5,-201.7 160.5,-201.7"/>
<text text-anchor="start" x="165.5" y="-210.3" font-family="Helvetica,sans-Serif" font-weight="bold" font-size="11.00" fill="#000000">magazine</text>
<text text-anchor="start" x="244.5437" y="-209.8" font-family="Helvetica,sans-Serif" font-size="11.00" fill="#000000">[table]</text>
<polygon fill="none" stroke="#000000" points="160.5,-179.7 160.5,-201.7 279.5,-201.7 279.5,-179.7 160.5,-179.7"/>
<image xlink:href="../../images/primaryKeys.png" width="11px" height="12px" preserveAspectRatio="xMinYMin meet" x="165.5" y="-196.7"/>
<text text-anchor="start" x="180.5" y="-186.8" font-family="Helvetica,sans-Serif" font-size="11.00" fill="#000000">id</text>
<polygon fill="none" stroke="#000000" points="160.5,-160.7 160.5,-179.7 279.5,-179.7 279.5,-160.7 160.5,-160.7"/>
<text text-anchor="start" x="163.5" y="-166.8" font-family="Helvetica,sans-Serif" font-size="11.00" fill="#000000">...</text>
<polygon fill="#ffffff" stroke="transparent" points="160.5,-141.7 160.5,-160.7 208.5,-160.7 208.5,-141.7 160.5,-141.7"/>
<polygon fill="none" stroke="#000000" points="160.5,-141.7 160.5,-160.7 208.5,-160.7 208.5,-141.7 160.5,-141.7"/>
<text text-anchor="start" x="163.5" y="-147.8" font-family="Helvetica,sans-Serif" font-size="11.00" fill="#000000">&lt; 1</text>
<polygon fill="#ffffff" stroke="transparent" points="208.5,-141.7 208.5,-160.7 253.5,-160.7 253.5,-141.7 208.5,-141.7"/>
<polygon fill="none" stroke="#000000" points="208.5,-141.7 208.5,-160.7 253.5,-160.7 253.5,-141.7 208.5,-141.7"/>
<text text-anchor="start" x="223.6105" y="-147.8" font-family="Helvetica,sans-Serif" font-size="11.00" fill="#000000">1 row</text>
<polygon fill="#ffffff" stroke="transparent" points="253.5,-141.7 253.5,-160.7 279.5,-160.7 279.5,-141.7 253.5,-141.7"/>
<polygon fill="none" stroke="#000000" points="253.5,-141.7 253.5,-160.7 279.5,-160.7 279.5,-141.7 253.5,-141.7"/>
<text text-anchor="start" x="270.3862" y="-147.8" font-family="Helvetica,sans-Serif" font-size="11.00" fill="#000000"> &#160;</text>
</a>
</g>
</g>
<!-- media -->
<g id="node2" class="node">
<title>media</title>
<g id="a_node2"><a xlink:href="../../tables/media.html" xlink:title="media" target="_top">
<polygon fill="#ffffff" stroke="transparent" points="8,-90.2 8,-173.2 111,-173.2 111,-90.2 8,-90.2"/>
<polygon fill="#f5f5f5" stroke="transparent" points="8.5,-149.7 8.5,-172.7 111.5,-172.7 111.5,-149.7 8.5,-149.7"/>
<polygon fill="none" stroke="#000000" points="8.5,-149.7 8.5,-172.7 111.5,-172.7 111.5,-149.7 8.5,-149.7"/>
<text text-anchor="start" x="13.5" y="-158.3" font-family="Helvetica,sans-Serif" font-weight="bold" font-size="11.00" fill="#000000">media</text>
<text text-anchor="start" x="76.5437" y="-157.8" font-family="Helvetica,sans-Serif" font-size="11.00" fill="#000000">[table]</text>
<polygon fill="none" stroke="#000000" points="8.5,-127.7 8.5,-149.7 111.5,-149.7 111.5,-127.7 8.5,-127.7"/>
<image xlink:href="../../images/primaryKeys.png" width="11px" height="12px" preserveAspectRatio="xMinYMin meet" x="13.5" y="-144.7"/>
<text text-anchor="start" x="28.5" y="-134.8" font-family="Helvetica,sans-Serif" font-size="11.00" fill="#000000">id</text>
<polygon fill="none" stroke="#000000" points="8.5,-108.7 8.5,-127.7 111.5,-127.7 111.5,-108.7 8.5,-108.7"/>
<text text-anchor="start" x="11.5" y="-114.8" font-family="Helvetica,sans-Serif" font-size="11.00" fill="#000000">...</text>
<polygon fill="#ffffff" stroke="transparent" points="8.5,-89.7 8.5,-108.7 36.5,-108.7 36.5,-89.7 8.5,-89.7"/>
<polygon fill="none" stroke="#000000" points="8.5,-89.7 8.5,-108.7 36.5,-108.7 36.5,-89.7 8.5,-89.7"/>
<text text-anchor="start" x="11.5" y="-95.8" font-family="Helvetica,sans-Serif" font-size="11.00" fill="#000000"> &#160;</text>
<polygon fill="#ffffff" stroke="transparent" points="36.5,-89.7 36.5,-108.7 82.5,-108.7 82.5,-89.7 36.5,-89.7"/>
<polygon fill="none" stroke="#000000" points="36.5,-89.7 36.5,-108.7 82.5,-108.7 82.5,-89.7 36.5,-89.7"/>
<text text-anchor="start" x="47.1105" y="-95.8" font-family="Helvetica,sans-Serif" font-size="11.00" fill="#000000">2 rows</text>
<polygon fill="#ffffff" stroke="transparent" points="82.5,-89.7 82.5,-108.7 111.5,-108.7 111.5,-89.7 82.5,-89.7"/>
<polygon fill="none" stroke="#000000" points="82.5,-89.7 82.5,-108.7 111.5,-108.7 111.5,-89.7 82.5,-89.7"/>
<text text-anchor="start" x="92.9053" y="-95.8" font-family="Helvetica,sans-Serif" font-size="11.00" fill="#000000">2 &gt;</text>
</a>
</g>
</g>
<!-- magazine&#45;&gt;media -->
<g id="edge2" class="edge">
<title>magazine:w&#45;&gt;media:e</title>
<path fill="none" stroke="#000000" d="M150.079,-188.1919C131.783,-177.8047 139.0377,-138.7 111.5,-138.7"/>
<polygon fill="#000000" stroke="#000000" points="160.6582,-186.6238 158.7862,-194.4018 157.2306,-194.0274 159.1026,-186.2494 160.6582,-186.6238"/>
<polyline fill="none" stroke="#000000" points="160.5,-190.7 156.611,-189.764 "/>
<ellipse fill="none" stroke="#000000" cx="153.4999" cy="-189.0152" rx="3.2" ry="3.2"/>
</g>
<!-- livre -->
<g id="node3" class="node">
<title>livre</title>
<g id="a_node3"><a xlink:href="../../tables/livre.html" xlink:title="livre" target="_top">
<polygon fill="#ffffff" stroke="transparent" points="184,-38.2 184,-121.2 255,-121.2 255,-38.2 184,-38.2"/>
<polygon fill="#f5f5f5" stroke="transparent" points="184.5,-97.7 184.5,-120.7 255.5,-120.7 255.5,-97.7 184.5,-97.7"/>
<polygon fill="none" stroke="#000000" points="184.5,-97.7 184.5,-120.7 255.5,-120.7 255.5,-97.7 184.5,-97.7"/>
<text text-anchor="start" x="189.4207" y="-106.3" font-family="Helvetica,sans-Serif" font-weight="bold" font-size="11.00" fill="#000000">livre</text>
<text text-anchor="start" x="220.5437" y="-105.8" font-family="Helvetica,sans-Serif" font-size="11.00" fill="#000000">[table]</text>
<polygon fill="none" stroke="#000000" points="184.5,-75.7 184.5,-97.7 255.5,-97.7 255.5,-75.7 184.5,-75.7"/>
<image xlink:href="../../images/primaryKeys.png" width="11px" height="12px" preserveAspectRatio="xMinYMin meet" x="189.5" y="-92.7"/>
<text text-anchor="start" x="204.5" y="-82.8" font-family="Helvetica,sans-Serif" font-size="11.00" fill="#000000">id</text>
<polygon fill="none" stroke="#000000" points="184.5,-56.7 184.5,-75.7 255.5,-75.7 255.5,-56.7 184.5,-56.7"/>
<text text-anchor="start" x="187.5" y="-62.8" font-family="Helvetica,sans-Serif" font-size="11.00" fill="#000000">...</text>
<polygon fill="#ffffff" stroke="transparent" points="184.5,-37.7 184.5,-56.7 208.5,-56.7 208.5,-37.7 184.5,-37.7"/>
<polygon fill="none" stroke="#000000" points="184.5,-37.7 184.5,-56.7 208.5,-56.7 208.5,-37.7 184.5,-37.7"/>
<text text-anchor="start" x="187.5" y="-43.8" font-family="Helvetica,sans-Serif" font-size="11.00" fill="#000000">&lt; 1</text>
<polygon fill="#ffffff" stroke="transparent" points="208.5,-37.7 208.5,-56.7 241.5,-56.7 241.5,-37.7 208.5,-37.7"/>
<polygon fill="none" stroke="#000000" points="208.5,-37.7 208.5,-56.7 241.5,-56.7 241.5,-37.7 208.5,-37.7"/>
<text text-anchor="start" x="211.6105" y="-43.8" font-family="Helvetica,sans-Serif" font-size="11.00" fill="#000000">1 row</text>
<polygon fill="#ffffff" stroke="transparent" points="241.5,-37.7 241.5,-56.7 255.5,-56.7 255.5,-37.7 241.5,-37.7"/>
<polygon fill="none" stroke="#000000" points="241.5,-37.7 241.5,-56.7 255.5,-56.7 255.5,-37.7 241.5,-37.7"/>
<text text-anchor="start" x="246.3862" y="-43.8" font-family="Helvetica,sans-Serif" font-size="11.00" fill="#000000"> &#160;</text>
</a>
</g>
</g>
<!-- livre&#45;&gt;media -->
<g id="edge1" class="edge">
<title>livre:w&#45;&gt;media:e</title>
<path fill="none" stroke="#000000" d="M174.0737,-88.0909C145.5247,-96.3603 147.4442,-138.7 111.5,-138.7"/>
<polygon fill="#000000" stroke="#000000" points="183.1781,-82.8409 184.236,-90.7707 182.65,-90.9822 181.5921,-83.0525 183.1781,-82.8409"/>
<polyline fill="none" stroke="#000000" points="184.5,-86.7 180.5351,-87.2289 "/>
<ellipse fill="none" stroke="#000000" cx="177.3632" cy="-87.6521" rx="3.2" ry="3.2"/>
</g>
</g>
</svg>
