<?xml version="1.0" encoding="UTF-8" standalone="no"?>
<!DOCTYPE svg PUBLIC "-//W3C//DTD SVG 1.1//EN"
 "http://www.w3.org/Graphics/SVG/1.1/DTD/svg11.dtd">
<!-- Generated by graphviz version 2.40.1 (20161225.0304)
 -->
<!-- Title: largeRelationshipsDiagram Pages: 1 -->
<svg width="295pt" height="287pt"
 viewBox="0.00 0.00 295.00 287.20" xmlns="http://www.w3.org/2000/svg" xmlns:xlink="http://www.w3.org/1999/xlink">
<g id="graph0" class="graph" transform="scale(1 1) rotate(0) translate(4 283.2)">
<title>largeRelationshipsDiagram</title>
<polygon fill="#ffffff" stroke="transparent" points="-4,4 -4,-283.2 291,-283.2 291,4 -4,4"/>
<text text-anchor="middle" x="72.4936" y="-7.3" font-family="Helvetica,sans-Serif" font-size="11.00" fill="#000000">Generated by SchemaSpy</text>
<!-- magazine -->
<g id="node1" class="node">
<title>magazine</title>
<g id="a_node1"><a xlink:href="../../tables/magazine.html" xlink:title="magazine" target="_top">
<polygon fill="#ffffff" stroke="transparent" points="160,-189.2 160,-275.2 279,-275.2 279,-189.2 160,-189.2"/>
<polygon fill="#f5f5f5" stroke="transparent" points="160.5,-252.2 160.5,-275.2 279.5,-275.2 279.5,-252.2 160.5,-252.2"/>
<polygon fill="none" stroke="#000000" points="160.5,-252.2 160.5,-275.2 279.5,-275.2 279.5,-252.2 160.5,-252.2"/>
<text text-anchor="start" x="165.5" y="-260.8" font-family="Helvetica,sans-Serif" font-weight="bold" font-size="11.00" fill="#000000">magazine</text>
<text text-anchor="start" x="244.5437" y="-260.3" font-family="Helvetica,sans-Serif" font-size="11.00" fill="#000000">[table]</text>
<polygon fill="none" stroke="#000000" points="160.5,-230.2 160.5,-252.2 279.5,-252.2 279.5,-230.2 160.5,-230.2"/>
<image xlink:href="../../images/primaryKeys.png" width="11px" height="12px" preserveAspectRatio="xMinYMin meet" x="165.5" y="-247.2"/>
<text text-anchor="start" x="180.5" y="-237.3" font-family="Helvetica,sans-Serif" font-size="11.00" fill="#000000">id</text>
<polygon fill="none" stroke="#000000" points="160.5,-208.2 160.5,-230.2 279.5,-230.2 279.5,-208.2 160.5,-208.2"/>
<text text-anchor="start" x="180.5" y="-215.3" font-family="Helvetica,sans-Serif" font-size="11.00" fill="#000000">numeroMagazine</text>
<polygon fill="#ffffff" stroke="transparent" points="160.5,-189.2 160.5,-208.2 208.5,-208.2 208.5,-189.2 160.5,-189.2"/>
<polygon fill="none" stroke="#000000" points="160.5,-189.2 160.5,-208.2 208.5,-208.2 208.5,-189.2 160.5,-189.2"/>
<text text-anchor="start" x="163.5" y="-195.3" font-family="Helvetica,sans-Serif" font-size="11.00" fill="#000000">&lt; 1</text>
<polygon fill="#ffffff" stroke="transparent" points="208.5,-189.2 208.5,-208.2 253.5,-208.2 253.5,-189.2 208.5,-189.2"/>
<polygon fill="none" stroke="#000000" points="208.5,-189.2 208.5,-208.2 253.5,-208.2 253.5,-189.2 208.5,-189.2"/>
<text text-anchor="start" x="223.6105" y="-195.3" font-family="Helvetica,sans-Serif" font-size="11.00" fill="#000000">1 row</text>
<polygon fill="#ffffff" stroke="transparent" points="253.5,-189.2 253.5,-208.2 279.5,-208.2 279.5,-189.2 253.5,-189.2"/>
<polygon fill="none" stroke="#000000" points="253.5,-189.2 253.5,-208.2 279.5,-208.2 279.5,-189.2 253.5,-189.2"/>
<text text-anchor="start" x="270.3862" y="-195.3" font-family="Helvetica,sans-Serif" font-size="11.00" fill="#000000"> &#160;</text>
</a>
</g>
</g>
<!-- media -->
<g id="node2" class="node">
<title>media</title>
<g id="a_node2"><a xlink:href="../../tables/media.html" xlink:title="media" target="_top">
<polygon fill="#ffffff" stroke="transparent" points="8,-47.2 8,-221.2 111,-221.2 111,-47.2 8,-47.2"/>
<polygon fill="#f5f5f5" stroke="transparent" points="8.5,-198.2 8.5,-221.2 111.5,-221.2 111.5,-198.2 8.5,-198.2"/>
<polygon fill="none" stroke="#000000" points="8.5,-198.2 8.5,-221.2 111.5,-221.2 111.5,-198.2 8.5,-198.2"/>
<text text-anchor="start" x="13.5" y="-206.8" font-family="Helvetica,sans-Serif" font-weight="bold" font-size="11.00" fill="#000000">media</text>
<text text-anchor="start" x="76.5437" y="-206.3" font-family="Helvetica,sans-Serif" font-size="11.00" fill="#000000">[table]</text>
<polygon fill="none" stroke="#000000" points="8.5,-176.2 8.5,-198.2 111.5,-198.2 111.5,-176.2 8.5,-176.2"/>
<image xlink:href="../../images/primaryKeys.png" width="11px" height="12px" preserveAspectRatio="xMinYMin meet" x="13.5" y="-193.2"/>
<text text-anchor="start" x="28.5" y="-183.3" font-family="Helvetica,sans-Serif" font-size="11.00" fill="#000000">id</text>
<polygon fill="none" stroke="#000000" points="8.5,-154.2 8.5,-176.2 111.5,-176.2 111.5,-154.2 8.5,-154.2"/>
<text text-anchor="start" x="28.5" y="-161.3" font-family="Helvetica,sans-Serif" font-size="11.00" fill="#000000">titre</text>
<polygon fill="none" stroke="#000000" points="8.5,-132.2 8.5,-154.2 111.5,-154.2 111.5,-132.2 8.5,-132.2"/>
<text text-anchor="start" x="28.5" y="-139.3" font-family="Helvetica,sans-Serif" font-size="11.00" fill="#000000">dureeEmprunt</text>
<polygon fill="none" stroke="#000000" points="8.5,-110.2 8.5,-132.2 111.5,-132.2 111.5,-110.2 8.5,-110.2"/>
<text text-anchor="start" x="28.5" y="-117.3" font-family="Helvetica,sans-Serif" font-size="11.00" fill="#000000">statut</text>
<polygon fill="none" stroke="#000000" points="8.5,-88.2 8.5,-110.2 111.5,-110.2 111.5,-88.2 8.5,-88.2"/>
<text text-anchor="start" x="28.5" y="-95.3" font-family="Helvetica,sans-Serif" font-size="11.00" fill="#000000">dateCreation</text>
<polygon fill="none" stroke="#000000" points="8.5,-66.2 8.5,-88.2 111.5,-88.2 111.5,-66.2 8.5,-66.2"/>
<text text-anchor="start" x="28.5" y="-73.3" font-family="Helvetica,sans-Serif" font-size="11.00" fill="#000000">type</text>
<polygon fill="#ffffff" stroke="transparent" points="8.5,-47.2 8.5,-66.2 36.5,-66.2 36.5,-47.2 8.5,-47.2"/>
<polygon fill="none" stroke="#000000" points="8.5,-47.2 8.5,-66.2 36.5,-66.2 36.5,-47.2 8.5,-47.2"/>
<text text-anchor="start" x="11.5" y="-53.3" font-family="Helvetica,sans-Serif" font-size="11.00" fill="#000000"> &#160;</text>
<polygon fill="#ffffff" stroke="transparent" points="36.5,-47.2 36.5,-66.2 82.5,-66.2 82.5,-47.2 36.5,-47.2"/>
<polygon fill="none" stroke="#000000" points="36.5,-47.2 36.5,-66.2 82.5,-66.2 82.5,-47.2 36.5,-47.2"/>
<text text-anchor="start" x="47.1105" y="-53.3" font-family="Helvetica,sans-Serif" font-size="11.00" fill="#000000">2 rows</text>
<polygon fill="#ffffff" stroke="transparent" points="82.5,-47.2 82.5,-66.2 111.5,-66.2 111.5,-47.2 82.5,-47.2"/>
<polygon fill="none" stroke="#000000" points="82.5,-47.2 82.5,-66.2 111.5,-66.2 111.5,-47.2 82.5,-47.2"/>
<text text-anchor="start" x="92.9053" y="-53.3" font-family="Helvetica,sans-Serif" font-size="11.00" fill="#000000">2 &gt;</text>
</a>
</g>
</g>
<!-- magazine&#45;&gt;media -->
<g id="edge2" class="edge">
<title>magazine:w&#45;&gt;media:e</title>
<path fill="none" stroke="#000000" d="M149.9134,-238.5955C131.4425,-227.8088 139.6037,-187.2 111.5,-187.2"/>
<polygon fill="#000000" stroke="#000000" points="160.6788,-237.1247 158.7675,-244.8931 157.2139,-244.5108 159.1251,-236.7424 160.6788,-237.1247"/>
<polyline fill="none" stroke="#000000" points="160.5,-241.2 156.6158,-240.2444 "/>
<ellipse fill="none" stroke="#000000" cx="153.5085" cy="-239.4799" rx="3.2" ry="3.2"/>
</g>
<!-- livre -->
<g id="node3" class="node">
<title>livre</title>
<g id="a_node3"><a xlink:href="../../tables/livre.html" xlink:title="livre" target="_top">
<polygon fill="#ffffff" stroke="transparent" points="184,-38.2 184,-168.2 255,-168.2 255,-38.2 184,-38.2"/>
<polygon fill="#f5f5f5" stroke="transparent" points="184.5,-145.2 184.5,-168.2 255.5,-168.2 255.5,-145.2 184.5,-145.2"/>
<polygon fill="none" stroke="#000000" points="184.5,-145.2 184.5,-168.2 255.5,-168.2 255.5,-145.2 184.5,-145.2"/>
<text text-anchor="start" x="189.4207" y="-153.8" font-family="Helvetica,sans-Serif" font-weight="bold" font-size="11.00" fill="#000000">livre</text>
<text text-anchor="start" x="220.5437" y="-153.3" font-family="Helvetica,sans-Serif" font-size="11.00" fill="#000000">[table]</text>
<polygon fill="none" stroke="#000000" points="184.5,-123.2 184.5,-145.2 255.5,-145.2 255.5,-123.2 184.5,-123.2"/>
<image xlink:href="../../images/primaryKeys.png" width="11px" height="12px" preserveAspectRatio="xMinYMin meet" x="189.5" y="-140.2"/>
<text text-anchor="start" x="204.5" y="-130.3" font-family="Helvetica,sans-Serif" font-size="11.00" fill="#000000">id</text>
<polygon fill="none" stroke="#000000" points="184.5,-101.2 184.5,-123.2 255.5,-123.2 255.5,-101.2 184.5,-101.2"/>
<text text-anchor="start" x="204.5" y="-108.3" font-family="Helvetica,sans-Serif" font-size="11.00" fill="#000000">isbn</text>
<polygon fill="none" stroke="#000000" points="184.5,-79.2 184.5,-101.2 255.5,-101.2 255.5,-79.2 184.5,-79.2"/>
<text text-anchor="start" x="204.5" y="-86.3" font-family="Helvetica,sans-Serif" font-size="11.00" fill="#000000">auteur</text>
<polygon fill="none" stroke="#000000" points="184.5,-57.2 184.5,-79.2 255.5,-79.2 255.5,-57.2 184.5,-57.2"/>
<text text-anchor="start" x="204.5" y="-64.3" font-family="Helvetica,sans-Serif" font-size="11.00" fill="#000000">nbPages</text>
<polygon fill="#ffffff" stroke="transparent" points="184.5,-38.2 184.5,-57.2 208.5,-57.2 208.5,-38.2 184.5,-38.2"/>
<polygon fill="none" stroke="#000000" points="184.5,-38.2 184.5,-57.2 208.5,-57.2 208.5,-38.2 184.5,-38.2"/>
<text text-anchor="start" x="187.5" y="-44.3" font-family="Helvetica,sans-Serif" font-size="11.00" fill="#000000">&lt; 1</text>
<polygon fill="#ffffff" stroke="transparent" points="208.5,-38.2 208.5,-57.2 241.5,-57.2 241.5,-38.2 208.5,-38.2"/>
<polygon fill="none" stroke="#000000" points="208.5,-38.2 208.5,-57.2 241.5,-57.2 241.5,-38.2 208.5,-38.2"/>
<text text-anchor="start" x="211.6105" y="-44.3" font-family="Helvetica,sans-Serif" font-size="11.00" fill="#000000">1 row</text>
<polygon fill="#ffffff" stroke="transparent" points="241.5,-38.2 241.5,-57.2 255.5,-57.2 255.5,-38.2 241.5,-38.2"/>
<polygon fill="none" stroke="#000000" points="241.5,-38.2 241.5,-57.2 255.5,-57.2 255.5,-38.2 241.5,-38.2"/>
<text text-anchor="start" x="246.3862" y="-44.3" font-family="Helvetica,sans-Serif" font-size="11.00" fill="#000000"> &#160;</text>
</a>
</g>
</g>
<!-- livre&#45;&gt;media -->
<g id="edge1" class="edge">
<title>livre:w&#45;&gt;media:e</title>
<path fill="none" stroke="#000000" d="M174.0185,-135.6176C145.3592,-144.0461 147.6783,-187.2 111.5,-187.2"/>
<polygon fill="#000000" stroke="#000000" points="183.1711,-130.3433 184.2434,-138.2711 182.6578,-138.4856 181.5855,-130.5578 183.1711,-130.3433"/>
<polyline fill="none" stroke="#000000" points="184.5,-134.2 180.5361,-134.7361 "/>
<ellipse fill="none" stroke="#000000" cx="177.365" cy="-135.1651" rx="3.2" ry="3.2"/>
</g>
</g>
</svg>
