<?xml version="1.0" encoding="UTF-8" standalone="no"?>
<!DOCTYPE svg PUBLIC "-//W3C//DTD SVG 1.1//EN"
 "http://www.w3.org/Graphics/SVG/1.1/DTD/svg11.dtd">
<!-- Generated by graphviz version 2.40.1 (20161225.0304)
 -->
<!-- Title: compactRelationshipsDiagram Pages: 1 -->
<svg width="247pt" height="133pt"
 viewBox="0.00 0.00 247.00 133.20" xmlns="http://www.w3.org/2000/svg" xmlns:xlink="http://www.w3.org/1999/xlink">
<g id="graph0" class="graph" transform="scale(1 1) rotate(0) translate(4 129.2)">
<title>compactRelationshipsDiagram</title>
<polygon fill="#ffffff" stroke="transparent" points="-4,4 -4,-129.2 243,-129.2 243,4 -4,4"/>
<text text-anchor="middle" x="72.4936" y="-7.3" font-family="Helvetica,sans-Serif" font-size="11.00" fill="#000000">Generated by SchemaSpy</text>
<!-- media -->
<g id="node1" class="node">
<title>media</title>
<g id="a_node1"><a xlink:href="../../tables/media.html" xlink:title="media" target="_top">
<polygon fill="#ffffff" stroke="transparent" points="8,-38.2 8,-121.2 111,-121.2 111,-38.2 8,-38.2"/>
<polygon fill="#f5f5f5" stroke="transparent" points="8.5,-97.7 8.5,-120.7 111.5,-120.7 111.5,-97.7 8.5,-97.7"/>
<polygon fill="none" stroke="#000000" points="8.5,-97.7 8.5,-120.7 111.5,-120.7 111.5,-97.7 8.5,-97.7"/>
<text text-anchor="start" x="13.5" y="-106.3" font-family="Helvetica,sans-Serif" font-weight="bold" font-size="11.00" fill="#000000">media</text>
<text text-anchor="start" x="76.5437" y="-105.8" font-family="Helvetica,sans-Serif" font-size="11.00" fill="#000000">[table]</text>
<polygon fill="none" stroke="#000000" points="8.5,-75.7 8.5,-97.7 111.5,-97.7 111.5,-75.7 8.5,-75.7"/>
<image xlink:href="../../images/primaryKeys.png" width="11px" height="12px" preserveAspectRatio="xMinYMin meet" x="13.5" y="-92.7"/>
<text text-anchor="start" x="28.5" y="-82.8" font-family="Helvetica,sans-Serif" font-size="11.00" fill="#000000">id</text>
<polygon fill="none" stroke="#000000" points="8.5,-56.7 8.5,-75.7 111.5,-75.7 111.5,-56.7 8.5,-56.7"/>
<text text-anchor="start" x="11.5" y="-62.8" font-family="Helvetica,sans-Serif" font-size="11.00" fill="#000000">...</text>
<polygon fill="#ffffff" stroke="transparent" points="8.5,-37.7 8.5,-56.7 36.5,-56.7 36.5,-37.7 8.5,-37.7"/>
<polygon fill="none" stroke="#000000" points="8.5,-37.7 8.5,-56.7 36.5,-56.7 36.5,-37.7 8.5,-37.7"/>
<text text-anchor="start" x="11.5" y="-43.8" font-family="Helvetica,sans-Serif" font-size="11.00" fill="#000000"> &#160;</text>
<polygon fill="#ffffff" stroke="transparent" points="36.5,-37.7 36.5,-56.7 82.5,-56.7 82.5,-37.7 36.5,-37.7"/>
<polygon fill="none" stroke="#000000" points="36.5,-37.7 36.5,-56.7 82.5,-56.7 82.5,-37.7 36.5,-37.7"/>
<text text-anchor="start" x="47.1105" y="-43.8" font-family="Helvetica,sans-Serif" font-size="11.00" fill="#000000">0 rows</text>
<polygon fill="#ffffff" stroke="transparent" points="82.5,-37.7 82.5,-56.7 111.5,-56.7 111.5,-37.7 82.5,-37.7"/>
<polygon fill="none" stroke="#000000" points="82.5,-37.7 82.5,-56.7 111.5,-56.7 111.5,-37.7 82.5,-37.7"/>
<text text-anchor="start" x="92.9053" y="-43.8" font-family="Helvetica,sans-Serif" font-size="11.00" fill="#000000">1 &gt;</text>
</a>
</g>
</g>
<!-- livre -->
<g id="node2" class="node">
<title>livre</title>
<g id="a_node2"><a xlink:href="../../tables/livre.html" xlink:title="livre" target="_top">
<polygon fill="#ffffff" stroke="transparent" points="160,-38.2 160,-121.2 231,-121.2 231,-38.2 160,-38.2"/>
<polygon fill="#f5f5f5" stroke="transparent" points="160.5,-97.7 160.5,-120.7 231.5,-120.7 231.5,-97.7 160.5,-97.7"/>
<polygon fill="none" stroke="#000000" points="160.5,-97.7 160.5,-120.7 231.5,-120.7 231.5,-97.7 160.5,-97.7"/>
<text text-anchor="start" x="165.4207" y="-106.3" font-family="Helvetica,sans-Serif" font-weight="bold" font-size="11.00" fill="#000000">livre</text>
<text text-anchor="start" x="196.5437" y="-105.8" font-family="Helvetica,sans-Serif" font-size="11.00" fill="#000000">[table]</text>
<polygon fill="none" stroke="#000000" points="160.5,-75.7 160.5,-97.7 231.5,-97.7 231.5,-75.7 160.5,-75.7"/>
<image xlink:href="../../images/primaryKeys.png" width="11px" height="12px" preserveAspectRatio="xMinYMin meet" x="165.5" y="-92.7"/>
<text text-anchor="start" x="180.5" y="-82.8" font-family="Helvetica,sans-Serif" font-size="11.00" fill="#000000">id</text>
<polygon fill="none" stroke="#000000" points="160.5,-56.7 160.5,-75.7 231.5,-75.7 231.5,-56.7 160.5,-56.7"/>
<text text-anchor="start" x="163.5" y="-62.8" font-family="Helvetica,sans-Serif" font-size="11.00" fill="#000000">...</text>
<polygon fill="#ffffff" stroke="transparent" points="160.5,-37.7 160.5,-56.7 181.5,-56.7 181.5,-37.7 160.5,-37.7"/>
<polygon fill="none" stroke="#000000" points="160.5,-37.7 160.5,-56.7 181.5,-56.7 181.5,-37.7 160.5,-37.7"/>
<text text-anchor="start" x="163.2027" y="-43.8" font-family="Helvetica,sans-Serif" font-size="11.00" fill="#000000">&lt; 1</text>
<polygon fill="#ffffff" stroke="transparent" points="181.5,-37.7 181.5,-56.7 219.5,-56.7 219.5,-37.7 181.5,-37.7"/>
<polygon fill="none" stroke="#000000" points="181.5,-37.7 181.5,-56.7 219.5,-56.7 219.5,-37.7 181.5,-37.7"/>
<text text-anchor="start" x="184.3053" y="-43.8" font-family="Helvetica,sans-Serif" font-size="11.00" fill="#000000">0 rows</text>
<polygon fill="#ffffff" stroke="transparent" points="219.5,-37.7 219.5,-56.7 231.5,-56.7 231.5,-37.7 219.5,-37.7"/>
<polygon fill="none" stroke="#000000" points="219.5,-37.7 219.5,-56.7 231.5,-56.7 231.5,-37.7 219.5,-37.7"/>
<text text-anchor="start" x="222.4431" y="-43.8" font-family="Helvetica,sans-Serif" font-size="11.00" fill="#000000"> &#160;</text>
</a>
</g>
</g>
<!-- livre&#45;&gt;media -->
<g id="edge1" class="edge">
<title>livre:w&#45;&gt;media:e</title>
<path fill="none" stroke="#000000" d="M149.7573,-86.7C136.1063,-86.7 129.1944,-86.7 111.5,-86.7"/>
<polygon fill="#000000" stroke="#000000" points="159.7,-82.7 159.7,-90.7 158.1,-90.7 158.1,-82.7 159.7,-82.7"/>
<polyline fill="none" stroke="#000000" points="160.5,-86.7 156.5,-86.7 "/>
<ellipse fill="none" stroke="#000000" cx="153.3" cy="-86.7001" rx="3.2" ry="3.2"/>
</g>
</g>
</svg>
