<?xml version="1.0" encoding="UTF-8" standalone="no"?>
<!DOCTYPE svg PUBLIC "-//W3C//DTD SVG 1.1//EN"
 "http://www.w3.org/Graphics/SVG/1.1/DTD/svg11.dtd">
<!-- Generated by graphviz version 2.40.1 (20161225.0304)
 -->
<!-- Title: oneDegreeRelationshipsDiagram Pages: 1 -->
<svg width="212pt" height="228pt"
 viewBox="0.00 0.00 212.00 228.20" xmlns="http://www.w3.org/2000/svg" xmlns:xlink="http://www.w3.org/1999/xlink">
<g id="graph0" class="graph" transform="scale(1 1) rotate(0) translate(4 224.2)">
<title>oneDegreeRelationshipsDiagram</title>
<polygon fill="#ffffff" stroke="transparent" points="-4,4 -4,-224.2 208,-224.2 208,4 -4,4"/>
<text text-anchor="middle" x="72.4936" y="-7.3" font-family="Helvetica,sans-Serif" font-size="11.00" fill="#000000">Generated by SchemaSpy</text>
<!-- adherent -->
<g id="node1" class="node">
<title>adherent</title>
<g id="a_node1"><a xlink:href="../../tables/adherent.html" xlink:title="adherent" target="_top">
<polygon fill="#ffffff" stroke="transparent" points="8,-38.2 8,-216.2 196,-216.2 196,-38.2 8,-38.2"/>
<polygon fill="#f5f5f5" stroke="transparent" points="10,-191.2 10,-214.2 194,-214.2 194,-191.2 10,-191.2"/>
<polygon fill="none" stroke="#000000" points="10,-191.2 10,-214.2 194,-214.2 194,-191.2 10,-191.2"/>
<text text-anchor="start" x="15" y="-199.8" font-family="Helvetica,sans-Serif" font-weight="bold" font-size="11.00" fill="#000000">adherent</text>
<text text-anchor="start" x="159.0437" y="-199.3" font-family="Helvetica,sans-Serif" font-size="11.00" fill="#000000">[table]</text>
<polygon fill="none" stroke="#000000" points="10,-169.2 10,-191.2 127,-191.2 127,-169.2 10,-169.2"/>
<image xlink:href="../../images/primaryKeys.png" width="11px" height="12px" preserveAspectRatio="xMinYMin meet" x="15" y="-186.2"/>
<text text-anchor="start" x="30" y="-176.3" font-family="Helvetica,sans-Serif" font-size="11.00" fill="#000000">id</text>
<polygon fill="none" stroke="#000000" points="127,-169.2 127,-191.2 194,-191.2 194,-169.2 127,-169.2"/>
<text text-anchor="start" x="130" y="-176.9" font-family="Helvetica,sans-Serif" font-size="11.00" fill="#000000">int[10]</text>
<polygon fill="none" stroke="#000000" points="10,-147.2 10,-169.2 127,-169.2 127,-147.2 10,-147.2"/>
<text text-anchor="start" x="30" y="-154.3" font-family="Helvetica,sans-Serif" font-size="11.00" fill="#000000">numeroAdherent</text>
<polygon fill="none" stroke="#000000" points="127,-147.2 127,-169.2 194,-169.2 194,-147.2 127,-147.2"/>
<text text-anchor="start" x="130" y="-154.9" font-family="Helvetica,sans-Serif" font-size="11.00" fill="#000000">varchar[9]</text>
<polygon fill="none" stroke="#000000" points="10,-125.2 10,-147.2 127,-147.2 127,-125.2 10,-125.2"/>
<text text-anchor="start" x="30" y="-132.3" font-family="Helvetica,sans-Serif" font-size="11.00" fill="#000000">prenom</text>
<polygon fill="none" stroke="#000000" points="127,-125.2 127,-147.2 194,-147.2 194,-125.2 127,-125.2"/>
<text text-anchor="start" x="130" y="-132.9" font-family="Helvetica,sans-Serif" font-size="11.00" fill="#000000">varchar[80]</text>
<polygon fill="none" stroke="#000000" points="10,-103.2 10,-125.2 127,-125.2 127,-103.2 10,-103.2"/>
<text text-anchor="start" x="30" y="-110.3" font-family="Helvetica,sans-Serif" font-size="11.00" fill="#000000">nom</text>
<polygon fill="none" stroke="#000000" points="127,-103.2 127,-125.2 194,-125.2 194,-103.2 127,-103.2"/>
<text text-anchor="start" x="130" y="-110.9" font-family="Helvetica,sans-Serif" font-size="11.00" fill="#000000">varchar[80]</text>
<polygon fill="none" stroke="#000000" points="10,-81.2 10,-103.2 127,-103.2 127,-81.2 10,-81.2"/>
<text text-anchor="start" x="30" y="-88.3" font-family="Helvetica,sans-Serif" font-size="11.00" fill="#000000">email</text>
<polygon fill="none" stroke="#000000" points="127,-81.2 127,-103.2 194,-103.2 194,-81.2 127,-81.2"/>
<text text-anchor="start" x="129.9365" y="-88.9" font-family="Helvetica,sans-Serif" font-size="11.00" fill="#000000">varchar[150]</text>
<polygon fill="none" stroke="#000000" points="10,-59.2 10,-81.2 127,-81.2 127,-59.2 10,-59.2"/>
<text text-anchor="start" x="30" y="-66.3" font-family="Helvetica,sans-Serif" font-size="11.00" fill="#000000">dateAdhesion</text>
<polygon fill="none" stroke="#000000" points="127,-59.2 127,-81.2 194,-81.2 194,-59.2 127,-59.2"/>
<text text-anchor="start" x="130" y="-66.9" font-family="Helvetica,sans-Serif" font-size="11.00" fill="#000000">datetime[19]</text>
<polygon fill="#ffffff" stroke="transparent" points="10,-40.2 10,-59.2 60,-59.2 60,-40.2 10,-40.2"/>
<polygon fill="none" stroke="#000000" points="10,-40.2 10,-59.2 60,-59.2 60,-40.2 10,-40.2"/>
<text text-anchor="start" x="13" y="-46.3" font-family="Helvetica,sans-Serif" font-size="11.00" fill="#000000">&lt; 0</text>
<polygon fill="#ffffff" stroke="transparent" points="60,-40.2 60,-59.2 127,-59.2 127,-40.2 60,-40.2"/>
<polygon fill="none" stroke="#000000" points="60,-40.2 60,-59.2 127,-59.2 127,-40.2 60,-40.2"/>
<text text-anchor="start" x="91.6105" y="-46.3" font-family="Helvetica,sans-Serif" font-size="11.00" fill="#000000">2 rows</text>
<polygon fill="#ffffff" stroke="transparent" points="127,-40.2 127,-59.2 194,-59.2 194,-40.2 127,-40.2"/>
<polygon fill="none" stroke="#000000" points="127,-40.2 127,-59.2 194,-59.2 194,-40.2 127,-40.2"/>
<text text-anchor="start" x="175.4053" y="-46.3" font-family="Helvetica,sans-Serif" font-size="11.00" fill="#000000">0 &gt;</text>
<polygon fill="none" stroke="#000000" stroke-width="2" points="9,-39.2 9,-215.2 195,-215.2 195,-39.2 9,-39.2"/>
</a>
</g>
</g>
</g>
</svg>
