<?xml version="1.0" encoding="UTF-8" standalone="no"?>
<!DOCTYPE svg PUBLIC "-//W3C//DTD SVG 1.1//EN"
 "http://www.w3.org/Graphics/SVG/1.1/DTD/svg11.dtd">
<!-- Generated by graphviz version 2.40.1 (20161225.0304)
 -->
<!-- Title: twoDegreesRelationshipsDiagram Pages: 1 -->
<svg width="312pt" height="267pt"
 viewBox="0.00 0.00 312.00 266.70" xmlns="http://www.w3.org/2000/svg" xmlns:xlink="http://www.w3.org/1999/xlink">
<g id="graph0" class="graph" transform="scale(1 1) rotate(0) translate(4 262.7)">
<title>twoDegreesRelationshipsDiagram</title>
<polygon fill="#ffffff" stroke="transparent" points="-4,4 -4,-262.7 308,-262.7 308,4 -4,4"/>
<text text-anchor="middle" x="72.4936" y="-7.3" font-family="Helvetica,sans-Serif" font-size="11.00" fill="#000000">Generated by SchemaSpy</text>
<!-- livre -->
<g id="node1" class="node">
<title>livre</title>
<g id="a_node1"><a xlink:href="../../tables/livre.html" xlink:title="livre" target="_top">
<polygon fill="#ffffff" stroke="transparent" points="160,-120.7 160,-254.7 296,-254.7 296,-120.7 160,-120.7"/>
<polygon fill="#f5f5f5" stroke="transparent" points="162,-229.7 162,-252.7 294,-252.7 294,-229.7 162,-229.7"/>
<polygon fill="none" stroke="#000000" points="162,-229.7 162,-252.7 294,-252.7 294,-229.7 162,-229.7"/>
<text text-anchor="start" x="166.9207" y="-238.3" font-family="Helvetica,sans-Serif" font-weight="bold" font-size="11.00" fill="#000000">livre</text>
<text text-anchor="start" x="259.0437" y="-237.8" font-family="Helvetica,sans-Serif" font-size="11.00" fill="#000000">[table]</text>
<polygon fill="none" stroke="#000000" points="162,-207.7 162,-229.7 233,-229.7 233,-207.7 162,-207.7"/>
<image xlink:href="../../images/primaryKeys.png" width="11px" height="12px" preserveAspectRatio="xMinYMin meet" x="167" y="-224.7"/>
<text text-anchor="start" x="182" y="-214.8" font-family="Helvetica,sans-Serif" font-size="11.00" fill="#000000">id</text>
<polygon fill="none" stroke="#000000" points="233,-207.7 233,-229.7 294,-229.7 294,-207.7 233,-207.7"/>
<text text-anchor="start" x="236" y="-215.4" font-family="Helvetica,sans-Serif" font-size="11.00" fill="#000000">int[10]</text>
<polygon fill="none" stroke="#000000" points="162,-185.7 162,-207.7 233,-207.7 233,-185.7 162,-185.7"/>
<text text-anchor="start" x="182" y="-192.8" font-family="Helvetica,sans-Serif" font-size="11.00" fill="#000000">isbn</text>
<polygon fill="none" stroke="#000000" points="233,-185.7 233,-207.7 294,-207.7 294,-185.7 233,-185.7"/>
<text text-anchor="start" x="235.994" y="-193.4" font-family="Helvetica,sans-Serif" font-size="11.00" fill="#000000">varchar[20]</text>
<polygon fill="none" stroke="#000000" points="162,-163.7 162,-185.7 233,-185.7 233,-163.7 162,-163.7"/>
<text text-anchor="start" x="182" y="-170.8" font-family="Helvetica,sans-Serif" font-size="11.00" fill="#000000">auteur</text>
<polygon fill="none" stroke="#000000" points="233,-163.7 233,-185.7 294,-185.7 294,-163.7 233,-163.7"/>
<text text-anchor="start" x="235.994" y="-171.4" font-family="Helvetica,sans-Serif" font-size="11.00" fill="#000000">varchar[80]</text>
<polygon fill="none" stroke="#000000" points="162,-141.7 162,-163.7 233,-163.7 233,-141.7 162,-141.7"/>
<text text-anchor="start" x="182" y="-148.8" font-family="Helvetica,sans-Serif" font-size="11.00" fill="#000000">nbPages</text>
<polygon fill="none" stroke="#000000" points="233,-141.7 233,-163.7 294,-163.7 294,-141.7 233,-141.7"/>
<text text-anchor="start" x="236" y="-149.4" font-family="Helvetica,sans-Serif" font-size="11.00" fill="#000000">int[10]</text>
<polygon fill="#ffffff" stroke="transparent" points="162,-122.7 162,-141.7 192,-141.7 192,-122.7 162,-122.7"/>
<polygon fill="none" stroke="#000000" points="162,-122.7 162,-141.7 192,-141.7 192,-122.7 162,-122.7"/>
<text text-anchor="start" x="165" y="-128.8" font-family="Helvetica,sans-Serif" font-size="11.00" fill="#000000">&lt; 1</text>
<polygon fill="#ffffff" stroke="transparent" points="192,-122.7 192,-141.7 233,-141.7 233,-122.7 192,-122.7"/>
<polygon fill="none" stroke="#000000" points="192,-122.7 192,-141.7 233,-141.7 233,-122.7 192,-122.7"/>
<text text-anchor="start" x="203.1105" y="-128.8" font-family="Helvetica,sans-Serif" font-size="11.00" fill="#000000">1 row</text>
<polygon fill="#ffffff" stroke="transparent" points="233,-122.7 233,-141.7 294,-141.7 294,-122.7 233,-122.7"/>
<polygon fill="none" stroke="#000000" points="233,-122.7 233,-141.7 294,-141.7 294,-122.7 233,-122.7"/>
<text text-anchor="start" x="275.4053" y="-128.8" font-family="Helvetica,sans-Serif" font-size="11.00" fill="#000000">0 &gt;</text>
<polygon fill="none" stroke="#000000" stroke-width="2" points="161,-121.7 161,-253.7 295,-253.7 295,-121.7 161,-121.7"/>
</a>
</g>
</g>
<!-- media -->
<g id="node2" class="node">
<title>media</title>
<g id="a_node2"><a xlink:href="../../tables/media.html" xlink:title="media" target="_top">
<polygon fill="#ffffff" stroke="transparent" points="8,-93.2 8,-176.2 111,-176.2 111,-93.2 8,-93.2"/>
<polygon fill="#f5f5f5" stroke="transparent" points="8.5,-152.7 8.5,-175.7 111.5,-175.7 111.5,-152.7 8.5,-152.7"/>
<polygon fill="none" stroke="#000000" points="8.5,-152.7 8.5,-175.7 111.5,-175.7 111.5,-152.7 8.5,-152.7"/>
<text text-anchor="start" x="13.5" y="-161.3" font-family="Helvetica,sans-Serif" font-weight="bold" font-size="11.00" fill="#000000">media</text>
<text text-anchor="start" x="76.5437" y="-160.8" font-family="Helvetica,sans-Serif" font-size="11.00" fill="#000000">[table]</text>
<polygon fill="none" stroke="#000000" points="8.5,-130.7 8.5,-152.7 111.5,-152.7 111.5,-130.7 8.5,-130.7"/>
<image xlink:href="../../images/primaryKeys.png" width="11px" height="12px" preserveAspectRatio="xMinYMin meet" x="13.5" y="-147.7"/>
<text text-anchor="start" x="28.5" y="-137.8" font-family="Helvetica,sans-Serif" font-size="11.00" fill="#000000">id</text>
<polygon fill="none" stroke="#000000" points="8.5,-111.7 8.5,-130.7 111.5,-130.7 111.5,-111.7 8.5,-111.7"/>
<text text-anchor="start" x="11.5" y="-117.8" font-family="Helvetica,sans-Serif" font-size="11.00" fill="#000000">...</text>
<polygon fill="#ffffff" stroke="transparent" points="8.5,-92.7 8.5,-111.7 36.5,-111.7 36.5,-92.7 8.5,-92.7"/>
<polygon fill="none" stroke="#000000" points="8.5,-92.7 8.5,-111.7 36.5,-111.7 36.5,-92.7 8.5,-92.7"/>
<text text-anchor="start" x="11.5" y="-98.8" font-family="Helvetica,sans-Serif" font-size="11.00" fill="#000000"> &#160;</text>
<polygon fill="#ffffff" stroke="transparent" points="36.5,-92.7 36.5,-111.7 82.5,-111.7 82.5,-92.7 36.5,-92.7"/>
<polygon fill="none" stroke="#000000" points="36.5,-92.7 36.5,-111.7 82.5,-111.7 82.5,-92.7 36.5,-92.7"/>
<text text-anchor="start" x="47.1105" y="-98.8" font-family="Helvetica,sans-Serif" font-size="11.00" fill="#000000">2 rows</text>
<polygon fill="#ffffff" stroke="transparent" points="82.5,-92.7 82.5,-111.7 111.5,-111.7 111.5,-92.7 82.5,-92.7"/>
<polygon fill="none" stroke="#000000" points="82.5,-92.7 82.5,-111.7 111.5,-111.7 111.5,-92.7 82.5,-92.7"/>
<text text-anchor="start" x="92.9053" y="-98.8" font-family="Helvetica,sans-Serif" font-size="11.00" fill="#000000">2 &gt;</text>
</a>
</g>
</g>
<!-- livre&#45;&gt;media -->
<g id="edge1" class="edge">
<title>livre:w&#45;&gt;media:e</title>
<path fill="none" stroke="#000000" d="M151.6156,-216.4786C126.697,-203.8536 148.2692,-141.7 111.5,-141.7"/>
<polygon fill="#000000" stroke="#000000" points="162.0545,-214.6211 160.3809,-222.4441 158.8163,-222.1094 160.4899,-214.2864 162.0545,-214.6211"/>
<polyline fill="none" stroke="#000000" points="162,-218.7 158.0885,-217.8632 "/>
<ellipse fill="none" stroke="#000000" cx="154.9593" cy="-217.1938" rx="3.2" ry="3.2"/>
</g>
<!-- magazine -->
<g id="node3" class="node">
<title>magazine</title>
<g id="a_node3"><a xlink:href="../../tables/magazine.html" xlink:title="magazine" target="_top">
<polygon fill="#ffffff" stroke="transparent" points="181.5,-38.2 181.5,-99.2 274.5,-99.2 274.5,-38.2 181.5,-38.2"/>
<polygon fill="#f5f5f5" stroke="transparent" points="182,-75.7 182,-98.7 275,-98.7 275,-75.7 182,-75.7"/>
<polygon fill="none" stroke="#000000" points="182,-75.7 182,-98.7 275,-98.7 275,-75.7 182,-75.7"/>
<text text-anchor="start" x="187" y="-84.3" font-family="Helvetica,sans-Serif" font-weight="bold" font-size="11.00" fill="#000000">magazine</text>
<text text-anchor="start" x="240.5219" y="-83.8" font-family="Helvetica,sans-Serif" font-size="11.00" fill="#000000">[table]</text>
<polygon fill="none" stroke="#000000" points="182,-56.7 182,-75.7 275,-75.7 275,-56.7 182,-56.7"/>
<text text-anchor="start" x="185" y="-62.8" font-family="Helvetica,sans-Serif" font-size="11.00" fill="#000000">...</text>
<polygon fill="#ffffff" stroke="transparent" points="182,-37.7 182,-56.7 217,-56.7 217,-37.7 182,-37.7"/>
<polygon fill="none" stroke="#000000" points="182,-37.7 182,-56.7 217,-56.7 217,-37.7 182,-37.7"/>
<text text-anchor="start" x="185" y="-43.8" font-family="Helvetica,sans-Serif" font-size="11.00" fill="#000000">&lt; 1</text>
<polygon fill="#ffffff" stroke="transparent" points="217,-37.7 217,-56.7 256,-56.7 256,-37.7 217,-37.7"/>
<polygon fill="none" stroke="#000000" points="217,-37.7 217,-56.7 256,-56.7 256,-37.7 217,-37.7"/>
<text text-anchor="start" x="226.1105" y="-43.8" font-family="Helvetica,sans-Serif" font-size="11.00" fill="#000000">1 row</text>
<polygon fill="#ffffff" stroke="transparent" points="256,-37.7 256,-56.7 275,-56.7 275,-37.7 256,-37.7"/>
<polygon fill="none" stroke="#000000" points="256,-37.7 256,-56.7 275,-56.7 275,-37.7 256,-37.7"/>
<text text-anchor="start" x="265.8862" y="-43.8" font-family="Helvetica,sans-Serif" font-size="11.00" fill="#000000"> &#160;</text>
</a>
</g>
</g>
<!-- magazine&#45;&gt;media -->
<g id="edge2" class="edge">
<title>magazine:w&#45;&gt;media:e</title>
<path fill="none" stroke="#000000" d="M171.5362,-67.2874C139.1473,-78.2012 153.6135,-141.7 111.5,-141.7"/>
<polygon fill="#000000" stroke="#000000" points="180.6091,-61.8652 181.809,-69.7747 180.2271,-70.0147 179.0272,-62.1052 180.6091,-61.8652"/>
<polyline fill="none" stroke="#000000" points="182,-65.7 178.0452,-66.3 "/>
<ellipse fill="none" stroke="#000000" cx="174.8814" cy="-66.78" rx="3.2" ry="3.2"/>
</g>
</g>
</svg>
