<?xml version="1.0" encoding="UTF-8" standalone="no"?>
<!DOCTYPE svg PUBLIC "-//W3C//DTD SVG 1.1//EN"
 "http://www.w3.org/Graphics/SVG/1.1/DTD/svg11.dtd">
<!-- Generated by graphviz version 2.40.1 (20161225.0304)
 -->
<!-- Title: oneDegreeRelationshipsDiagram Pages: 1 -->
<svg width="312pt" height="184pt"
 viewBox="0.00 0.00 312.00 184.20" xmlns="http://www.w3.org/2000/svg" xmlns:xlink="http://www.w3.org/1999/xlink">
<g id="graph0" class="graph" transform="scale(1 1) rotate(0) translate(4 180.2)">
<title>oneDegreeRelationshipsDiagram</title>
<polygon fill="#ffffff" stroke="transparent" points="-4,4 -4,-180.2 308,-180.2 308,4 -4,4"/>
<text text-anchor="middle" x="72.4936" y="-7.3" font-family="Helvetica,sans-Serif" font-size="11.00" fill="#000000">Generated by SchemaSpy</text>
<!-- livre -->
<g id="node1" class="node">
<title>livre</title>
<g id="a_node1"><a xlink:href="../../tables/livre.html" xlink:title="livre" target="_top">
<polygon fill="#ffffff" stroke="transparent" points="160,-38.2 160,-172.2 296,-172.2 296,-38.2 160,-38.2"/>
<polygon fill="#f5f5f5" stroke="transparent" points="162,-147.2 162,-170.2 294,-170.2 294,-147.2 162,-147.2"/>
<polygon fill="none" stroke="#000000" points="162,-147.2 162,-170.2 294,-170.2 294,-147.2 162,-147.2"/>
<text text-anchor="start" x="166.9207" y="-155.8" font-family="Helvetica,sans-Serif" font-weight="bold" font-size="11.00" fill="#000000">livre</text>
<text text-anchor="start" x="259.0437" y="-155.3" font-family="Helvetica,sans-Serif" font-size="11.00" fill="#000000">[table]</text>
<polygon fill="none" stroke="#000000" points="162,-125.2 162,-147.2 233,-147.2 233,-125.2 162,-125.2"/>
<image xlink:href="../../images/primaryKeys.png" width="11px" height="12px" preserveAspectRatio="xMinYMin meet" x="167" y="-142.2"/>
<text text-anchor="start" x="182" y="-132.3" font-family="Helvetica,sans-Serif" font-size="11.00" fill="#000000">id</text>
<polygon fill="none" stroke="#000000" points="233,-125.2 233,-147.2 294,-147.2 294,-125.2 233,-125.2"/>
<text text-anchor="start" x="236" y="-132.9" font-family="Helvetica,sans-Serif" font-size="11.00" fill="#000000">int[10]</text>
<polygon fill="none" stroke="#000000" points="162,-103.2 162,-125.2 233,-125.2 233,-103.2 162,-103.2"/>
<text text-anchor="start" x="182" y="-110.3" font-family="Helvetica,sans-Serif" font-size="11.00" fill="#000000">isbn</text>
<polygon fill="none" stroke="#000000" points="233,-103.2 233,-125.2 294,-125.2 294,-103.2 233,-103.2"/>
<text text-anchor="start" x="235.994" y="-110.9" font-family="Helvetica,sans-Serif" font-size="11.00" fill="#000000">varchar[20]</text>
<polygon fill="none" stroke="#000000" points="162,-81.2 162,-103.2 233,-103.2 233,-81.2 162,-81.2"/>
<text text-anchor="start" x="182" y="-88.3" font-family="Helvetica,sans-Serif" font-size="11.00" fill="#000000">auteur</text>
<polygon fill="none" stroke="#000000" points="233,-81.2 233,-103.2 294,-103.2 294,-81.2 233,-81.2"/>
<text text-anchor="start" x="235.994" y="-88.9" font-family="Helvetica,sans-Serif" font-size="11.00" fill="#000000">varchar[80]</text>
<polygon fill="none" stroke="#000000" points="162,-59.2 162,-81.2 233,-81.2 233,-59.2 162,-59.2"/>
<text text-anchor="start" x="182" y="-66.3" font-family="Helvetica,sans-Serif" font-size="11.00" fill="#000000">nbPages</text>
<polygon fill="none" stroke="#000000" points="233,-59.2 233,-81.2 294,-81.2 294,-59.2 233,-59.2"/>
<text text-anchor="start" x="236" y="-66.9" font-family="Helvetica,sans-Serif" font-size="11.00" fill="#000000">int[10]</text>
<polygon fill="#ffffff" stroke="transparent" points="162,-40.2 162,-59.2 192,-59.2 192,-40.2 162,-40.2"/>
<polygon fill="none" stroke="#000000" points="162,-40.2 162,-59.2 192,-59.2 192,-40.2 162,-40.2"/>
<text text-anchor="start" x="165" y="-46.3" font-family="Helvetica,sans-Serif" font-size="11.00" fill="#000000">&lt; 1</text>
<polygon fill="#ffffff" stroke="transparent" points="192,-40.2 192,-59.2 233,-59.2 233,-40.2 192,-40.2"/>
<polygon fill="none" stroke="#000000" points="192,-40.2 192,-59.2 233,-59.2 233,-40.2 192,-40.2"/>
<text text-anchor="start" x="203.1105" y="-46.3" font-family="Helvetica,sans-Serif" font-size="11.00" fill="#000000">1 row</text>
<polygon fill="#ffffff" stroke="transparent" points="233,-40.2 233,-59.2 294,-59.2 294,-40.2 233,-40.2"/>
<polygon fill="none" stroke="#000000" points="233,-40.2 233,-59.2 294,-59.2 294,-40.2 233,-40.2"/>
<text text-anchor="start" x="275.4053" y="-46.3" font-family="Helvetica,sans-Serif" font-size="11.00" fill="#000000">0 &gt;</text>
<polygon fill="none" stroke="#000000" stroke-width="2" points="161,-39.2 161,-171.2 295,-171.2 295,-39.2 161,-39.2"/>
</a>
</g>
</g>
<!-- media -->
<g id="node2" class="node">
<title>media</title>
<g id="a_node2"><a xlink:href="../../tables/media.html" xlink:title="media" target="_top">
<polygon fill="#ffffff" stroke="transparent" points="8,-87.7 8,-170.7 111,-170.7 111,-87.7 8,-87.7"/>
<polygon fill="#f5f5f5" stroke="transparent" points="8.5,-147.2 8.5,-170.2 111.5,-170.2 111.5,-147.2 8.5,-147.2"/>
<polygon fill="none" stroke="#000000" points="8.5,-147.2 8.5,-170.2 111.5,-170.2 111.5,-147.2 8.5,-147.2"/>
<text text-anchor="start" x="13.5" y="-155.8" font-family="Helvetica,sans-Serif" font-weight="bold" font-size="11.00" fill="#000000">media</text>
<text text-anchor="start" x="76.5437" y="-155.3" font-family="Helvetica,sans-Serif" font-size="11.00" fill="#000000">[table]</text>
<polygon fill="none" stroke="#000000" points="8.5,-125.2 8.5,-147.2 111.5,-147.2 111.5,-125.2 8.5,-125.2"/>
<image xlink:href="../../images/primaryKeys.png" width="11px" height="12px" preserveAspectRatio="xMinYMin meet" x="13.5" y="-142.2"/>
<text text-anchor="start" x="28.5" y="-132.3" font-family="Helvetica,sans-Serif" font-size="11.00" fill="#000000">id</text>
<polygon fill="none" stroke="#000000" points="8.5,-106.2 8.5,-125.2 111.5,-125.2 111.5,-106.2 8.5,-106.2"/>
<text text-anchor="start" x="11.5" y="-112.3" font-family="Helvetica,sans-Serif" font-size="11.00" fill="#000000">...</text>
<polygon fill="#ffffff" stroke="transparent" points="8.5,-87.2 8.5,-106.2 36.5,-106.2 36.5,-87.2 8.5,-87.2"/>
<polygon fill="none" stroke="#000000" points="8.5,-87.2 8.5,-106.2 36.5,-106.2 36.5,-87.2 8.5,-87.2"/>
<text text-anchor="start" x="11.5" y="-93.3" font-family="Helvetica,sans-Serif" font-size="11.00" fill="#000000"> &#160;</text>
<polygon fill="#ffffff" stroke="transparent" points="36.5,-87.2 36.5,-106.2 82.5,-106.2 82.5,-87.2 36.5,-87.2"/>
<polygon fill="none" stroke="#000000" points="36.5,-87.2 36.5,-106.2 82.5,-106.2 82.5,-87.2 36.5,-87.2"/>
<text text-anchor="start" x="47.1105" y="-93.3" font-family="Helvetica,sans-Serif" font-size="11.00" fill="#000000">2 rows</text>
<polygon fill="#ffffff" stroke="transparent" points="82.5,-87.2 82.5,-106.2 111.5,-106.2 111.5,-87.2 82.5,-87.2"/>
<polygon fill="none" stroke="#000000" points="82.5,-87.2 82.5,-106.2 111.5,-106.2 111.5,-87.2 82.5,-87.2"/>
<text text-anchor="start" x="92.9053" y="-93.3" font-family="Helvetica,sans-Serif" font-size="11.00" fill="#000000">2 &gt;</text>
</a>
</g>
</g>
<!-- livre&#45;&gt;media -->
<g id="edge1" class="edge">
<title>livre:w&#45;&gt;media:e</title>
<path fill="none" stroke="#000000" d="M151.3362,-136.2C136.9956,-136.2 129.9115,-136.2 111.5,-136.2"/>
<polygon fill="#000000" stroke="#000000" points="161.2,-132.2 161.2,-140.2 159.6,-140.2 159.6,-132.2 161.2,-132.2"/>
<polyline fill="none" stroke="#000000" points="162,-136.2 158,-136.2 "/>
<ellipse fill="none" stroke="#000000" cx="154.8" cy="-136.2001" rx="3.2" ry="3.2"/>
</g>
</g>
</svg>
