<?xml version="1.0" encoding="UTF-8" standalone="no"?>
<!DOCTYPE svg PUBLIC "-//W3C//DTD SVG 1.1//EN"
 "http://www.w3.org/Graphics/SVG/1.1/DTD/svg11.dtd">
<!-- Generated by graphviz version 2.40.1 (20161225.0304)
 -->
<!-- Title: twoDegreesRelationshipsDiagram Pages: 1 -->
<svg width="334pt" height="223pt"
 viewBox="0.00 0.00 334.00 222.70" xmlns="http://www.w3.org/2000/svg" xmlns:xlink="http://www.w3.org/1999/xlink">
<g id="graph0" class="graph" transform="scale(1 1) rotate(0) translate(4 218.7)">
<title>twoDegreesRelationshipsDiagram</title>
<polygon fill="#ffffff" stroke="transparent" points="-4,4 -4,-218.7 330,-218.7 330,4 -4,4"/>
<text text-anchor="middle" x="72.4936" y="-7.3" font-family="Helvetica,sans-Serif" font-size="11.00" fill="#000000">Generated by SchemaSpy</text>
<!-- livre -->
<g id="node1" class="node">
<title>livre</title>
<g id="a_node1"><a xlink:href="../../tables/livre.html" xlink:title="livre" target="_top">
<polygon fill="#ffffff" stroke="transparent" points="206.5,-149.7 206.5,-210.7 271.5,-210.7 271.5,-149.7 206.5,-149.7"/>
<polygon fill="#f5f5f5" stroke="transparent" points="207,-187.2 207,-210.2 272,-210.2 272,-187.2 207,-187.2"/>
<polygon fill="none" stroke="#000000" points="207,-187.2 207,-210.2 272,-210.2 272,-187.2 207,-187.2"/>
<text text-anchor="start" x="211.9207" y="-195.8" font-family="Helvetica,sans-Serif" font-weight="bold" font-size="11.00" fill="#000000">livre</text>
<text text-anchor="start" x="237.0437" y="-195.3" font-family="Helvetica,sans-Serif" font-size="11.00" fill="#000000">[table]</text>
<polygon fill="none" stroke="#000000" points="207,-168.2 207,-187.2 272,-187.2 272,-168.2 207,-168.2"/>
<text text-anchor="start" x="210" y="-174.3" font-family="Helvetica,sans-Serif" font-size="11.00" fill="#000000">...</text>
<polygon fill="#ffffff" stroke="transparent" points="207,-149.2 207,-168.2 228,-168.2 228,-149.2 207,-149.2"/>
<polygon fill="none" stroke="#000000" points="207,-149.2 207,-168.2 228,-168.2 228,-149.2 207,-149.2"/>
<text text-anchor="start" x="209.7027" y="-155.3" font-family="Helvetica,sans-Serif" font-size="11.00" fill="#000000">&lt; 1</text>
<polygon fill="#ffffff" stroke="transparent" points="228,-149.2 228,-168.2 260,-168.2 260,-149.2 228,-149.2"/>
<polygon fill="none" stroke="#000000" points="228,-149.2 228,-168.2 260,-168.2 260,-149.2 228,-149.2"/>
<text text-anchor="start" x="230.5553" y="-155.3" font-family="Helvetica,sans-Serif" font-size="11.00" fill="#000000">1 row</text>
<polygon fill="#ffffff" stroke="transparent" points="260,-149.2 260,-168.2 272,-168.2 272,-149.2 260,-149.2"/>
<polygon fill="none" stroke="#000000" points="260,-149.2 260,-168.2 272,-168.2 272,-149.2 260,-149.2"/>
<text text-anchor="start" x="262.9431" y="-155.3" font-family="Helvetica,sans-Serif" font-size="11.00" fill="#000000"> &#160;</text>
</a>
</g>
</g>
<!-- media -->
<g id="node2" class="node">
<title>media</title>
<g id="a_node2"><a xlink:href="../../tables/media.html" xlink:title="media" target="_top">
<polygon fill="#ffffff" stroke="transparent" points="8,-85.7 8,-168.7 111,-168.7 111,-85.7 8,-85.7"/>
<polygon fill="#f5f5f5" stroke="transparent" points="8.5,-145.2 8.5,-168.2 111.5,-168.2 111.5,-145.2 8.5,-145.2"/>
<polygon fill="none" stroke="#000000" points="8.5,-145.2 8.5,-168.2 111.5,-168.2 111.5,-145.2 8.5,-145.2"/>
<text text-anchor="start" x="13.5" y="-153.8" font-family="Helvetica,sans-Serif" font-weight="bold" font-size="11.00" fill="#000000">media</text>
<text text-anchor="start" x="76.5437" y="-153.3" font-family="Helvetica,sans-Serif" font-size="11.00" fill="#000000">[table]</text>
<polygon fill="none" stroke="#000000" points="8.5,-123.2 8.5,-145.2 111.5,-145.2 111.5,-123.2 8.5,-123.2"/>
<image xlink:href="../../images/primaryKeys.png" width="11px" height="12px" preserveAspectRatio="xMinYMin meet" x="13.5" y="-140.2"/>
<text text-anchor="start" x="28.5" y="-130.3" font-family="Helvetica,sans-Serif" font-size="11.00" fill="#000000">id</text>
<polygon fill="none" stroke="#000000" points="8.5,-104.2 8.5,-123.2 111.5,-123.2 111.5,-104.2 8.5,-104.2"/>
<text text-anchor="start" x="11.5" y="-110.3" font-family="Helvetica,sans-Serif" font-size="11.00" fill="#000000">...</text>
<polygon fill="#ffffff" stroke="transparent" points="8.5,-85.2 8.5,-104.2 36.5,-104.2 36.5,-85.2 8.5,-85.2"/>
<polygon fill="none" stroke="#000000" points="8.5,-85.2 8.5,-104.2 36.5,-104.2 36.5,-85.2 8.5,-85.2"/>
<text text-anchor="start" x="11.5" y="-91.3" font-family="Helvetica,sans-Serif" font-size="11.00" fill="#000000"> &#160;</text>
<polygon fill="#ffffff" stroke="transparent" points="36.5,-85.2 36.5,-104.2 82.5,-104.2 82.5,-85.2 36.5,-85.2"/>
<polygon fill="none" stroke="#000000" points="36.5,-85.2 36.5,-104.2 82.5,-104.2 82.5,-85.2 36.5,-85.2"/>
<text text-anchor="start" x="47.1105" y="-91.3" font-family="Helvetica,sans-Serif" font-size="11.00" fill="#000000">2 rows</text>
<polygon fill="#ffffff" stroke="transparent" points="82.5,-85.2 82.5,-104.2 111.5,-104.2 111.5,-85.2 82.5,-85.2"/>
<polygon fill="none" stroke="#000000" points="82.5,-85.2 82.5,-104.2 111.5,-104.2 111.5,-85.2 82.5,-85.2"/>
<text text-anchor="start" x="92.9053" y="-91.3" font-family="Helvetica,sans-Serif" font-size="11.00" fill="#000000">2 &gt;</text>
</a>
</g>
</g>
<!-- livre&#45;&gt;media -->
<g id="edge1" class="edge">
<title>livre:w&#45;&gt;media:e</title>
<path fill="none" stroke="#000000" d="M196.3871,-176.3794C159.7602,-170.4347 154.2301,-134.2 111.5,-134.2"/>
<polygon fill="#000000" stroke="#000000" points="206.5108,-173.1502 205.894,-181.1264 204.2987,-181.0031 204.9155,-173.0269 206.5108,-173.1502"/>
<polyline fill="none" stroke="#000000" points="207,-177.2 203.0119,-176.8916 "/>
<ellipse fill="none" stroke="#000000" cx="199.8214" cy="-176.6449" rx="3.2" ry="3.2"/>
</g>
<!-- magazine -->
<g id="node3" class="node">
<title>magazine</title>
<g id="a_node3"><a xlink:href="../../tables/magazine.html" xlink:title="magazine" target="_top">
<polygon fill="#ffffff" stroke="transparent" points="160,-38.2 160,-128.2 318,-128.2 318,-38.2 160,-38.2"/>
<polygon fill="#f5f5f5" stroke="transparent" points="162,-103.2 162,-126.2 316,-126.2 316,-103.2 162,-103.2"/>
<polygon fill="none" stroke="#000000" points="162,-103.2 162,-126.2 316,-126.2 316,-103.2 162,-103.2"/>
<text text-anchor="start" x="167" y="-111.8" font-family="Helvetica,sans-Serif" font-weight="bold" font-size="11.00" fill="#000000">magazine</text>
<text text-anchor="start" x="281.0437" y="-111.3" font-family="Helvetica,sans-Serif" font-size="11.00" fill="#000000">[table]</text>
<polygon fill="none" stroke="#000000" points="162,-81.2 162,-103.2 281,-103.2 281,-81.2 162,-81.2"/>
<image xlink:href="../../images/primaryKeys.png" width="11px" height="12px" preserveAspectRatio="xMinYMin meet" x="167" y="-98.2"/>
<text text-anchor="start" x="182" y="-88.3" font-family="Helvetica,sans-Serif" font-size="11.00" fill="#000000">id</text>
<polygon fill="none" stroke="#000000" points="281,-81.2 281,-103.2 316,-103.2 316,-81.2 281,-81.2"/>
<text text-anchor="start" x="283.5219" y="-88.9" font-family="Helvetica,sans-Serif" font-size="11.00" fill="#000000">int[10]</text>
<polygon fill="none" stroke="#000000" points="162,-59.2 162,-81.2 281,-81.2 281,-59.2 162,-59.2"/>
<text text-anchor="start" x="182" y="-66.3" font-family="Helvetica,sans-Serif" font-size="11.00" fill="#000000">numeroMagazine</text>
<polygon fill="none" stroke="#000000" points="281,-59.2 281,-81.2 316,-81.2 316,-59.2 281,-59.2"/>
<text text-anchor="start" x="283.5219" y="-66.9" font-family="Helvetica,sans-Serif" font-size="11.00" fill="#000000">int[10]</text>
<polygon fill="#ffffff" stroke="transparent" points="162,-40.2 162,-59.2 216,-59.2 216,-40.2 162,-40.2"/>
<polygon fill="none" stroke="#000000" points="162,-40.2 162,-59.2 216,-59.2 216,-40.2 162,-40.2"/>
<text text-anchor="start" x="165" y="-46.3" font-family="Helvetica,sans-Serif" font-size="11.00" fill="#000000">&lt; 1</text>
<polygon fill="#ffffff" stroke="transparent" points="216,-40.2 216,-59.2 281,-59.2 281,-40.2 216,-40.2"/>
<polygon fill="none" stroke="#000000" points="216,-40.2 216,-59.2 281,-59.2 281,-40.2 216,-40.2"/>
<text text-anchor="start" x="251.1105" y="-46.3" font-family="Helvetica,sans-Serif" font-size="11.00" fill="#000000">1 row</text>
<polygon fill="#ffffff" stroke="transparent" points="281,-40.2 281,-59.2 316,-59.2 316,-40.2 281,-40.2"/>
<polygon fill="none" stroke="#000000" points="281,-40.2 281,-59.2 316,-59.2 316,-40.2 281,-40.2"/>
<text text-anchor="start" x="297.4053" y="-46.3" font-family="Helvetica,sans-Serif" font-size="11.00" fill="#000000">0 &gt;</text>
<polygon fill="none" stroke="#000000" stroke-width="2" points="161,-39.2 161,-127.2 317,-127.2 317,-39.2 161,-39.2"/>
</a>
</g>
</g>
<!-- magazine&#45;&gt;media -->
<g id="edge2" class="edge">
<title>magazine:w&#45;&gt;media:e</title>
<path fill="none" stroke="#000000" d="M151.6779,-94.4581C134.292,-103.1819 136.5872,-134.2 111.5,-134.2"/>
<polygon fill="#000000" stroke="#000000" points="160.3636,-88.4634 162.0733,-96.2786 160.5103,-96.6205 158.8006,-88.8053 160.3636,-88.4634"/>
<polyline fill="none" stroke="#000000" points="162,-92.2 158.0924,-93.0549 "/>
<ellipse fill="none" stroke="#000000" cx="154.9663" cy="-93.7388" rx="3.2" ry="3.2"/>
</g>
</g>
</svg>
