<?xml version="1.0" encoding="UTF-8" standalone="no"?>
<!DOCTYPE svg PUBLIC "-//W3C//DTD SVG 1.1//EN"
 "http://www.w3.org/Graphics/SVG/1.1/DTD/svg11.dtd">
<!-- Generated by graphviz version 2.40.1 (20161225.0304)
 -->
<!-- Title: oneDegreeRelationshipsDiagram Pages: 1 -->
<svg width="334pt" height="140pt"
 viewBox="0.00 0.00 334.00 140.20" xmlns="http://www.w3.org/2000/svg" xmlns:xlink="http://www.w3.org/1999/xlink">
<g id="graph0" class="graph" transform="scale(1 1) rotate(0) translate(4 136.2)">
<title>oneDegreeRelationshipsDiagram</title>
<polygon fill="#ffffff" stroke="transparent" points="-4,4 -4,-136.2 330,-136.2 330,4 -4,4"/>
<text text-anchor="middle" x="72.4936" y="-7.3" font-family="Helvetica,sans-Serif" font-size="11.00" fill="#000000">Generated by SchemaSpy</text>
<!-- magazine -->
<g id="node1" class="node">
<title>magazine</title>
<g id="a_node1"><a xlink:href="../../tables/magazine.html" xlink:title="magazine" target="_top">
<polygon fill="#ffffff" stroke="transparent" points="160,-38.2 160,-128.2 318,-128.2 318,-38.2 160,-38.2"/>
<polygon fill="#f5f5f5" stroke="transparent" points="162,-103.2 162,-126.2 316,-126.2 316,-103.2 162,-103.2"/>
<polygon fill="none" stroke="#000000" points="162,-103.2 162,-126.2 316,-126.2 316,-103.2 162,-103.2"/>
<text text-anchor="start" x="167" y="-111.8" font-family="Helvetica,sans-Serif" font-weight="bold" font-size="11.00" fill="#000000">magazine</text>
<text text-anchor="start" x="281.0437" y="-111.3" font-family="Helvetica,sans-Serif" font-size="11.00" fill="#000000">[table]</text>
<polygon fill="none" stroke="#000000" points="162,-81.2 162,-103.2 281,-103.2 281,-81.2 162,-81.2"/>
<image xlink:href="../../images/primaryKeys.png" width="11px" height="12px" preserveAspectRatio="xMinYMin meet" x="167" y="-98.2"/>
<text text-anchor="start" x="182" y="-88.3" font-family="Helvetica,sans-Serif" font-size="11.00" fill="#000000">id</text>
<polygon fill="none" stroke="#000000" points="281,-81.2 281,-103.2 316,-103.2 316,-81.2 281,-81.2"/>
<text text-anchor="start" x="283.5219" y="-88.9" font-family="Helvetica,sans-Serif" font-size="11.00" fill="#000000">int[10]</text>
<polygon fill="none" stroke="#000000" points="162,-59.2 162,-81.2 281,-81.2 281,-59.2 162,-59.2"/>
<text text-anchor="start" x="182" y="-66.3" font-family="Helvetica,sans-Serif" font-size="11.00" fill="#000000">numeroMagazine</text>
<polygon fill="none" stroke="#000000" points="281,-59.2 281,-81.2 316,-81.2 316,-59.2 281,-59.2"/>
<text text-anchor="start" x="283.5219" y="-66.9" font-family="Helvetica,sans-Serif" font-size="11.00" fill="#000000">int[10]</text>
<polygon fill="#ffffff" stroke="transparent" points="162,-40.2 162,-59.2 216,-59.2 216,-40.2 162,-40.2"/>
<polygon fill="none" stroke="#000000" points="162,-40.2 162,-59.2 216,-59.2 216,-40.2 162,-40.2"/>
<text text-anchor="start" x="165" y="-46.3" font-family="Helvetica,sans-Serif" font-size="11.00" fill="#000000">&lt; 1</text>
<polygon fill="#ffffff" stroke="transparent" points="216,-40.2 216,-59.2 281,-59.2 281,-40.2 216,-40.2"/>
<polygon fill="none" stroke="#000000" points="216,-40.2 216,-59.2 281,-59.2 281,-40.2 216,-40.2"/>
<text text-anchor="start" x="251.1105" y="-46.3" font-family="Helvetica,sans-Serif" font-size="11.00" fill="#000000">1 row</text>
<polygon fill="#ffffff" stroke="transparent" points="281,-40.2 281,-59.2 316,-59.2 316,-40.2 281,-40.2"/>
<polygon fill="none" stroke="#000000" points="281,-40.2 281,-59.2 316,-59.2 316,-40.2 281,-40.2"/>
<text text-anchor="start" x="297.4053" y="-46.3" font-family="Helvetica,sans-Serif" font-size="11.00" fill="#000000">0 &gt;</text>
<polygon fill="none" stroke="#000000" stroke-width="2" points="161,-39.2 161,-127.2 317,-127.2 317,-39.2 161,-39.2"/>
</a>
</g>
</g>
<!-- media -->
<g id="node2" class="node">
<title>media</title>
<g id="a_node2"><a xlink:href="../../tables/media.html" xlink:title="media" target="_top">
<polygon fill="#ffffff" stroke="transparent" points="8,-43.7 8,-126.7 111,-126.7 111,-43.7 8,-43.7"/>
<polygon fill="#f5f5f5" stroke="transparent" points="8.5,-103.2 8.5,-126.2 111.5,-126.2 111.5,-103.2 8.5,-103.2"/>
<polygon fill="none" stroke="#000000" points="8.5,-103.2 8.5,-126.2 111.5,-126.2 111.5,-103.2 8.5,-103.2"/>
<text text-anchor="start" x="13.5" y="-111.8" font-family="Helvetica,sans-Serif" font-weight="bold" font-size="11.00" fill="#000000">media</text>
<text text-anchor="start" x="76.5437" y="-111.3" font-family="Helvetica,sans-Serif" font-size="11.00" fill="#000000">[table]</text>
<polygon fill="none" stroke="#000000" points="8.5,-81.2 8.5,-103.2 111.5,-103.2 111.5,-81.2 8.5,-81.2"/>
<image xlink:href="../../images/primaryKeys.png" width="11px" height="12px" preserveAspectRatio="xMinYMin meet" x="13.5" y="-98.2"/>
<text text-anchor="start" x="28.5" y="-88.3" font-family="Helvetica,sans-Serif" font-size="11.00" fill="#000000">id</text>
<polygon fill="none" stroke="#000000" points="8.5,-62.2 8.5,-81.2 111.5,-81.2 111.5,-62.2 8.5,-62.2"/>
<text text-anchor="start" x="11.5" y="-68.3" font-family="Helvetica,sans-Serif" font-size="11.00" fill="#000000">...</text>
<polygon fill="#ffffff" stroke="transparent" points="8.5,-43.2 8.5,-62.2 36.5,-62.2 36.5,-43.2 8.5,-43.2"/>
<polygon fill="none" stroke="#000000" points="8.5,-43.2 8.5,-62.2 36.5,-62.2 36.5,-43.2 8.5,-43.2"/>
<text text-anchor="start" x="11.5" y="-49.3" font-family="Helvetica,sans-Serif" font-size="11.00" fill="#000000"> &#160;</text>
<polygon fill="#ffffff" stroke="transparent" points="36.5,-43.2 36.5,-62.2 82.5,-62.2 82.5,-43.2 36.5,-43.2"/>
<polygon fill="none" stroke="#000000" points="36.5,-43.2 36.5,-62.2 82.5,-62.2 82.5,-43.2 36.5,-43.2"/>
<text text-anchor="start" x="47.1105" y="-49.3" font-family="Helvetica,sans-Serif" font-size="11.00" fill="#000000">2 rows</text>
<polygon fill="#ffffff" stroke="transparent" points="82.5,-43.2 82.5,-62.2 111.5,-62.2 111.5,-43.2 82.5,-43.2"/>
<polygon fill="none" stroke="#000000" points="82.5,-43.2 82.5,-62.2 111.5,-62.2 111.5,-43.2 82.5,-43.2"/>
<text text-anchor="start" x="92.9053" y="-49.3" font-family="Helvetica,sans-Serif" font-size="11.00" fill="#000000">2 &gt;</text>
</a>
</g>
</g>
<!-- magazine&#45;&gt;media -->
<g id="edge1" class="edge">
<title>magazine:w&#45;&gt;media:e</title>
<path fill="none" stroke="#000000" d="M151.3362,-92.2C136.9956,-92.2 129.9115,-92.2 111.5,-92.2"/>
<polygon fill="#000000" stroke="#000000" points="161.2,-88.2 161.2,-96.2 159.6,-96.2 159.6,-88.2 161.2,-88.2"/>
<polyline fill="none" stroke="#000000" points="162,-92.2 158,-92.2 "/>
<ellipse fill="none" stroke="#000000" cx="154.8" cy="-92.2001" rx="3.2" ry="3.2"/>
</g>
</g>
</svg>
