<?xml version="1.0" encoding="UTF-8" standalone="no"?>
<!DOCTYPE svg PUBLIC "-//W3C//DTD SVG 1.1//EN"
 "http://www.w3.org/Graphics/SVG/1.1/DTD/svg11.dtd">
<!-- Generated by graphviz version 2.40.1 (20161225.0304)
 -->
<!-- Title: oneDegreeRelationshipsDiagram Pages: 1 -->
<svg width="366pt" height="279pt"
 viewBox="0.00 0.00 366.00 278.70" xmlns="http://www.w3.org/2000/svg" xmlns:xlink="http://www.w3.org/1999/xlink">
<g id="graph0" class="graph" transform="scale(1 1) rotate(0) translate(4 274.7)">
<title>oneDegreeRelationshipsDiagram</title>
<polygon fill="#ffffff" stroke="transparent" points="-4,4 -4,-274.7 362,-274.7 362,4 -4,4"/>
<text text-anchor="middle" x="72.4936" y="-7.3" font-family="Helvetica,sans-Serif" font-size="11.00" fill="#000000">Generated by SchemaSpy</text>
<!-- livre -->
<g id="node1" class="node">
<title>livre</title>
<g id="a_node1"><a xlink:href="../../tables/livre.html" xlink:title="livre" target="_top">
<polygon fill="#ffffff" stroke="transparent" points="255,-183.7 255,-266.7 326,-266.7 326,-183.7 255,-183.7"/>
<polygon fill="#f5f5f5" stroke="transparent" points="255.5,-243.2 255.5,-266.2 326.5,-266.2 326.5,-243.2 255.5,-243.2"/>
<polygon fill="none" stroke="#000000" points="255.5,-243.2 255.5,-266.2 326.5,-266.2 326.5,-243.2 255.5,-243.2"/>
<text text-anchor="start" x="260.4207" y="-251.8" font-family="Helvetica,sans-Serif" font-weight="bold" font-size="11.00" fill="#000000">livre</text>
<text text-anchor="start" x="291.5437" y="-251.3" font-family="Helvetica,sans-Serif" font-size="11.00" fill="#000000">[table]</text>
<polygon fill="none" stroke="#000000" points="255.5,-221.2 255.5,-243.2 326.5,-243.2 326.5,-221.2 255.5,-221.2"/>
<image xlink:href="../../images/primaryKeys.png" width="11px" height="12px" preserveAspectRatio="xMinYMin meet" x="260.5" y="-238.2"/>
<text text-anchor="start" x="275.5" y="-228.3" font-family="Helvetica,sans-Serif" font-size="11.00" fill="#000000">id</text>
<polygon fill="none" stroke="#000000" points="255.5,-202.2 255.5,-221.2 326.5,-221.2 326.5,-202.2 255.5,-202.2"/>
<text text-anchor="start" x="258.5" y="-208.3" font-family="Helvetica,sans-Serif" font-size="11.00" fill="#000000">...</text>
<polygon fill="#ffffff" stroke="transparent" points="255.5,-183.2 255.5,-202.2 279.5,-202.2 279.5,-183.2 255.5,-183.2"/>
<polygon fill="none" stroke="#000000" points="255.5,-183.2 255.5,-202.2 279.5,-202.2 279.5,-183.2 255.5,-183.2"/>
<text text-anchor="start" x="258.5" y="-189.3" font-family="Helvetica,sans-Serif" font-size="11.00" fill="#000000">&lt; 1</text>
<polygon fill="#ffffff" stroke="transparent" points="279.5,-183.2 279.5,-202.2 312.5,-202.2 312.5,-183.2 279.5,-183.2"/>
<polygon fill="none" stroke="#000000" points="279.5,-183.2 279.5,-202.2 312.5,-202.2 312.5,-183.2 279.5,-183.2"/>
<text text-anchor="start" x="282.6105" y="-189.3" font-family="Helvetica,sans-Serif" font-size="11.00" fill="#000000">1 row</text>
<polygon fill="#ffffff" stroke="transparent" points="312.5,-183.2 312.5,-202.2 326.5,-202.2 326.5,-183.2 312.5,-183.2"/>
<polygon fill="none" stroke="#000000" points="312.5,-183.2 312.5,-202.2 326.5,-202.2 326.5,-183.2 312.5,-183.2"/>
<text text-anchor="start" x="317.3862" y="-189.3" font-family="Helvetica,sans-Serif" font-size="11.00" fill="#000000"> &#160;</text>
</a>
</g>
</g>
<!-- media -->
<g id="node2" class="node">
<title>media</title>
<g id="a_node2"><a xlink:href="../../tables/media.html" xlink:title="media" target="_top">
<polygon fill="#ffffff" stroke="transparent" points="8,-38.2 8,-216.2 182,-216.2 182,-38.2 8,-38.2"/>
<polygon fill="#f5f5f5" stroke="transparent" points="10,-191.2 10,-214.2 180,-214.2 180,-191.2 10,-191.2"/>
<polygon fill="none" stroke="#000000" points="10,-191.2 10,-214.2 180,-214.2 180,-191.2 10,-191.2"/>
<text text-anchor="start" x="15" y="-199.8" font-family="Helvetica,sans-Serif" font-weight="bold" font-size="11.00" fill="#000000">media</text>
<text text-anchor="start" x="145.0437" y="-199.3" font-family="Helvetica,sans-Serif" font-size="11.00" fill="#000000">[table]</text>
<polygon fill="none" stroke="#000000" points="10,-169.2 10,-191.2 113,-191.2 113,-169.2 10,-169.2"/>
<image xlink:href="../../images/primaryKeys.png" width="11px" height="12px" preserveAspectRatio="xMinYMin meet" x="15" y="-186.2"/>
<text text-anchor="start" x="30" y="-176.3" font-family="Helvetica,sans-Serif" font-size="11.00" fill="#000000">id</text>
<polygon fill="none" stroke="#000000" points="113,-169.2 113,-191.2 180,-191.2 180,-169.2 113,-169.2"/>
<text text-anchor="start" x="116" y="-176.9" font-family="Helvetica,sans-Serif" font-size="11.00" fill="#000000">int[10]</text>
<polygon fill="none" stroke="#000000" points="10,-147.2 10,-169.2 113,-169.2 113,-147.2 10,-147.2"/>
<text text-anchor="start" x="30" y="-154.3" font-family="Helvetica,sans-Serif" font-size="11.00" fill="#000000">titre</text>
<polygon fill="none" stroke="#000000" points="113,-147.2 113,-169.2 180,-169.2 180,-147.2 113,-147.2"/>
<text text-anchor="start" x="115.9365" y="-154.9" font-family="Helvetica,sans-Serif" font-size="11.00" fill="#000000">varchar[100]</text>
<polygon fill="none" stroke="#000000" points="10,-125.2 10,-147.2 113,-147.2 113,-125.2 10,-125.2"/>
<text text-anchor="start" x="30" y="-132.3" font-family="Helvetica,sans-Serif" font-size="11.00" fill="#000000">dureeEmprunt</text>
<polygon fill="none" stroke="#000000" points="113,-125.2 113,-147.2 180,-147.2 180,-125.2 113,-125.2"/>
<text text-anchor="start" x="116" y="-132.9" font-family="Helvetica,sans-Serif" font-size="11.00" fill="#000000">int[10]</text>
<polygon fill="none" stroke="#000000" points="10,-103.2 10,-125.2 113,-125.2 113,-103.2 10,-103.2"/>
<text text-anchor="start" x="30" y="-110.3" font-family="Helvetica,sans-Serif" font-size="11.00" fill="#000000">statut</text>
<polygon fill="none" stroke="#000000" points="113,-103.2 113,-125.2 180,-125.2 180,-103.2 113,-103.2"/>
<text text-anchor="start" x="116" y="-110.9" font-family="Helvetica,sans-Serif" font-size="11.00" fill="#000000">varchar[20]</text>
<polygon fill="none" stroke="#000000" points="10,-81.2 10,-103.2 113,-103.2 113,-81.2 10,-81.2"/>
<text text-anchor="start" x="30" y="-88.3" font-family="Helvetica,sans-Serif" font-size="11.00" fill="#000000">dateCreation</text>
<polygon fill="none" stroke="#000000" points="113,-81.2 113,-103.2 180,-103.2 180,-81.2 113,-81.2"/>
<text text-anchor="start" x="116" y="-88.9" font-family="Helvetica,sans-Serif" font-size="11.00" fill="#000000">varchar[10]</text>
<polygon fill="none" stroke="#000000" points="10,-59.2 10,-81.2 113,-81.2 113,-59.2 10,-59.2"/>
<text text-anchor="start" x="30" y="-66.3" font-family="Helvetica,sans-Serif" font-size="11.00" fill="#000000">type</text>
<polygon fill="none" stroke="#000000" points="113,-59.2 113,-81.2 180,-81.2 180,-59.2 113,-59.2"/>
<text text-anchor="start" x="115.9365" y="-66.9" font-family="Helvetica,sans-Serif" font-size="11.00" fill="#000000">varchar[255]</text>
<polygon fill="#ffffff" stroke="transparent" points="10,-40.2 10,-59.2 53,-59.2 53,-40.2 10,-40.2"/>
<polygon fill="none" stroke="#000000" points="10,-40.2 10,-59.2 53,-59.2 53,-40.2 10,-40.2"/>
<text text-anchor="start" x="13" y="-46.3" font-family="Helvetica,sans-Serif" font-size="11.00" fill="#000000">&lt; 0</text>
<polygon fill="#ffffff" stroke="transparent" points="53,-40.2 53,-59.2 113,-59.2 113,-40.2 53,-40.2"/>
<polygon fill="none" stroke="#000000" points="53,-40.2 53,-59.2 113,-59.2 113,-40.2 53,-40.2"/>
<text text-anchor="start" x="77.6105" y="-46.3" font-family="Helvetica,sans-Serif" font-size="11.00" fill="#000000">2 rows</text>
<polygon fill="#ffffff" stroke="transparent" points="113,-40.2 113,-59.2 180,-59.2 180,-40.2 113,-40.2"/>
<polygon fill="none" stroke="#000000" points="113,-40.2 113,-59.2 180,-59.2 180,-40.2 113,-40.2"/>
<text text-anchor="start" x="161.4053" y="-46.3" font-family="Helvetica,sans-Serif" font-size="11.00" fill="#000000">2 &gt;</text>
<polygon fill="none" stroke="#000000" stroke-width="2" points="9,-39.2 9,-215.2 181,-215.2 181,-39.2 9,-39.2"/>
</a>
</g>
</g>
<!-- livre&#45;&gt;media -->
<g id="edge1" class="edge">
<title>livre:w&#45;&gt;media:e</title>
<path fill="none" stroke="#000000" d="M244.8132,-230.8091C215.4797,-222.5397 216.7654,-180.2 180,-180.2"/>
<polygon fill="#000000" stroke="#000000" points="255.223,-228.1302 254.1904,-236.0633 252.6038,-235.8568 253.6363,-227.9237 255.223,-228.1302"/>
<polyline fill="none" stroke="#000000" points="255.5,-232.2 251.5335,-231.6837 "/>
<ellipse fill="none" stroke="#000000" cx="248.3602" cy="-231.2707" rx="3.2" ry="3.2"/>
</g>
<!-- magazine -->
<g id="node3" class="node">
<title>magazine</title>
<g id="a_node3"><a xlink:href="../../tables/magazine.html" xlink:title="magazine" target="_top">
<polygon fill="#ffffff" stroke="transparent" points="231,-79.7 231,-162.7 350,-162.7 350,-79.7 231,-79.7"/>
<polygon fill="#f5f5f5" stroke="transparent" points="231.5,-139.2 231.5,-162.2 350.5,-162.2 350.5,-139.2 231.5,-139.2"/>
<polygon fill="none" stroke="#000000" points="231.5,-139.2 231.5,-162.2 350.5,-162.2 350.5,-139.2 231.5,-139.2"/>
<text text-anchor="start" x="236.5" y="-147.8" font-family="Helvetica,sans-Serif" font-weight="bold" font-size="11.00" fill="#000000">magazine</text>
<text text-anchor="start" x="315.5437" y="-147.3" font-family="Helvetica,sans-Serif" font-size="11.00" fill="#000000">[table]</text>
<polygon fill="none" stroke="#000000" points="231.5,-117.2 231.5,-139.2 350.5,-139.2 350.5,-117.2 231.5,-117.2"/>
<image xlink:href="../../images/primaryKeys.png" width="11px" height="12px" preserveAspectRatio="xMinYMin meet" x="236.5" y="-134.2"/>
<text text-anchor="start" x="251.5" y="-124.3" font-family="Helvetica,sans-Serif" font-size="11.00" fill="#000000">id</text>
<polygon fill="none" stroke="#000000" points="231.5,-98.2 231.5,-117.2 350.5,-117.2 350.5,-98.2 231.5,-98.2"/>
<text text-anchor="start" x="234.5" y="-104.3" font-family="Helvetica,sans-Serif" font-size="11.00" fill="#000000">...</text>
<polygon fill="#ffffff" stroke="transparent" points="231.5,-79.2 231.5,-98.2 279.5,-98.2 279.5,-79.2 231.5,-79.2"/>
<polygon fill="none" stroke="#000000" points="231.5,-79.2 231.5,-98.2 279.5,-98.2 279.5,-79.2 231.5,-79.2"/>
<text text-anchor="start" x="234.5" y="-85.3" font-family="Helvetica,sans-Serif" font-size="11.00" fill="#000000">&lt; 1</text>
<polygon fill="#ffffff" stroke="transparent" points="279.5,-79.2 279.5,-98.2 324.5,-98.2 324.5,-79.2 279.5,-79.2"/>
<polygon fill="none" stroke="#000000" points="279.5,-79.2 279.5,-98.2 324.5,-98.2 324.5,-79.2 279.5,-79.2"/>
<text text-anchor="start" x="294.6105" y="-85.3" font-family="Helvetica,sans-Serif" font-size="11.00" fill="#000000">1 row</text>
<polygon fill="#ffffff" stroke="transparent" points="324.5,-79.2 324.5,-98.2 350.5,-98.2 350.5,-79.2 324.5,-79.2"/>
<polygon fill="none" stroke="#000000" points="324.5,-79.2 324.5,-98.2 350.5,-98.2 350.5,-79.2 324.5,-79.2"/>
<text text-anchor="start" x="341.3862" y="-85.3" font-family="Helvetica,sans-Serif" font-size="11.00" fill="#000000"> &#160;</text>
</a>
</g>
</g>
<!-- magazine&#45;&gt;media -->
<g id="edge2" class="edge">
<title>magazine:w&#45;&gt;media:e</title>
<path fill="none" stroke="#000000" d="M221.2823,-130.4344C201.6413,-140.3875 208.4614,-180.2 180,-180.2"/>
<polygon fill="#000000" stroke="#000000" points="229.8639,-124.4632 231.573,-132.2786 230.01,-132.6204 228.3009,-124.8051 229.8639,-124.4632"/>
<polyline fill="none" stroke="#000000" points="231.5,-128.2 227.5923,-129.0545 "/>
<ellipse fill="none" stroke="#000000" cx="224.4662" cy="-129.7382" rx="3.2" ry="3.2"/>
</g>
</g>
</svg>
