<?xml version="1.0" encoding="UTF-8" standalone="no"?>
<!DOCTYPE svg PUBLIC "-//W3C//DTD SVG 1.1//EN"
 "http://www.w3.org/Graphics/SVG/1.1/DTD/svg11.dtd">
<!-- Generated by graphviz version 2.40.1 (20161225.0304)
 -->
<!-- Title: oneDegreeRelationshipsDiagram Pages: 1 -->
<svg width="318pt" height="228pt"
 viewBox="0.00 0.00 318.00 228.20" xmlns="http://www.w3.org/2000/svg" xmlns:xlink="http://www.w3.org/1999/xlink">
<g id="graph0" class="graph" transform="scale(1 1) rotate(0) translate(4 224.2)">
<title>oneDegreeRelationshipsDiagram</title>
<polygon fill="#ffffff" stroke="transparent" points="-4,4 -4,-224.2 314,-224.2 314,4 -4,4"/>
<text text-anchor="middle" x="72.4936" y="-7.3" font-family="Helvetica,sans-Serif" font-size="11.00" fill="#000000">Generated by SchemaSpy</text>
<!-- livre -->
<g id="node1" class="node">
<title>livre</title>
<g id="a_node1"><a xlink:href="../../tables/livre.html" xlink:title="livre" target="_top">
<polygon fill="#ffffff" stroke="transparent" points="231,-131.7 231,-214.7 302,-214.7 302,-131.7 231,-131.7"/>
<polygon fill="#f5f5f5" stroke="transparent" points="231.5,-191.2 231.5,-214.2 302.5,-214.2 302.5,-191.2 231.5,-191.2"/>
<polygon fill="none" stroke="#000000" points="231.5,-191.2 231.5,-214.2 302.5,-214.2 302.5,-191.2 231.5,-191.2"/>
<text text-anchor="start" x="236.4207" y="-199.8" font-family="Helvetica,sans-Serif" font-weight="bold" font-size="11.00" fill="#000000">livre</text>
<text text-anchor="start" x="267.5437" y="-199.3" font-family="Helvetica,sans-Serif" font-size="11.00" fill="#000000">[table]</text>
<polygon fill="none" stroke="#000000" points="231.5,-169.2 231.5,-191.2 302.5,-191.2 302.5,-169.2 231.5,-169.2"/>
<image xlink:href="../../images/primaryKeys.png" width="11px" height="12px" preserveAspectRatio="xMinYMin meet" x="236.5" y="-186.2"/>
<text text-anchor="start" x="251.5" y="-176.3" font-family="Helvetica,sans-Serif" font-size="11.00" fill="#000000">id</text>
<polygon fill="none" stroke="#000000" points="231.5,-150.2 231.5,-169.2 302.5,-169.2 302.5,-150.2 231.5,-150.2"/>
<text text-anchor="start" x="234.5" y="-156.3" font-family="Helvetica,sans-Serif" font-size="11.00" fill="#000000">...</text>
<polygon fill="#ffffff" stroke="transparent" points="231.5,-131.2 231.5,-150.2 252.5,-150.2 252.5,-131.2 231.5,-131.2"/>
<polygon fill="none" stroke="#000000" points="231.5,-131.2 231.5,-150.2 252.5,-150.2 252.5,-131.2 231.5,-131.2"/>
<text text-anchor="start" x="234.2027" y="-137.3" font-family="Helvetica,sans-Serif" font-size="11.00" fill="#000000">&lt; 1</text>
<polygon fill="#ffffff" stroke="transparent" points="252.5,-131.2 252.5,-150.2 290.5,-150.2 290.5,-131.2 252.5,-131.2"/>
<polygon fill="none" stroke="#000000" points="252.5,-131.2 252.5,-150.2 290.5,-150.2 290.5,-131.2 252.5,-131.2"/>
<text text-anchor="start" x="255.3053" y="-137.3" font-family="Helvetica,sans-Serif" font-size="11.00" fill="#000000">0 rows</text>
<polygon fill="#ffffff" stroke="transparent" points="290.5,-131.2 290.5,-150.2 302.5,-150.2 302.5,-131.2 290.5,-131.2"/>
<polygon fill="none" stroke="#000000" points="290.5,-131.2 290.5,-150.2 302.5,-150.2 302.5,-131.2 290.5,-131.2"/>
<text text-anchor="start" x="293.4431" y="-137.3" font-family="Helvetica,sans-Serif" font-size="11.00" fill="#000000"> &#160;</text>
</a>
</g>
</g>
<!-- media -->
<g id="node2" class="node">
<title>media</title>
<g id="a_node2"><a xlink:href="../../tables/media.html" xlink:title="media" target="_top">
<polygon fill="#ffffff" stroke="transparent" points="8,-38.2 8,-216.2 182,-216.2 182,-38.2 8,-38.2"/>
<polygon fill="#f5f5f5" stroke="transparent" points="10,-191.2 10,-214.2 180,-214.2 180,-191.2 10,-191.2"/>
<polygon fill="none" stroke="#000000" points="10,-191.2 10,-214.2 180,-214.2 180,-191.2 10,-191.2"/>
<text text-anchor="start" x="15" y="-199.8" font-family="Helvetica,sans-Serif" font-weight="bold" font-size="11.00" fill="#000000">media</text>
<text text-anchor="start" x="145.0437" y="-199.3" font-family="Helvetica,sans-Serif" font-size="11.00" fill="#000000">[table]</text>
<polygon fill="none" stroke="#000000" points="10,-169.2 10,-191.2 113,-191.2 113,-169.2 10,-169.2"/>
<image xlink:href="../../images/primaryKeys.png" width="11px" height="12px" preserveAspectRatio="xMinYMin meet" x="15" y="-186.2"/>
<text text-anchor="start" x="30" y="-176.3" font-family="Helvetica,sans-Serif" font-size="11.00" fill="#000000">id</text>
<polygon fill="none" stroke="#000000" points="113,-169.2 113,-191.2 180,-191.2 180,-169.2 113,-169.2"/>
<text text-anchor="start" x="116" y="-176.9" font-family="Helvetica,sans-Serif" font-size="11.00" fill="#000000">int[10]</text>
<polygon fill="none" stroke="#000000" points="10,-147.2 10,-169.2 113,-169.2 113,-147.2 10,-147.2"/>
<text text-anchor="start" x="30" y="-154.3" font-family="Helvetica,sans-Serif" font-size="11.00" fill="#000000">titre</text>
<polygon fill="none" stroke="#000000" points="113,-147.2 113,-169.2 180,-169.2 180,-147.2 113,-147.2"/>
<text text-anchor="start" x="115.9365" y="-154.9" font-family="Helvetica,sans-Serif" font-size="11.00" fill="#000000">varchar[100]</text>
<polygon fill="none" stroke="#000000" points="10,-125.2 10,-147.2 113,-147.2 113,-125.2 10,-125.2"/>
<text text-anchor="start" x="30" y="-132.3" font-family="Helvetica,sans-Serif" font-size="11.00" fill="#000000">dureeEmprunt</text>
<polygon fill="none" stroke="#000000" points="113,-125.2 113,-147.2 180,-147.2 180,-125.2 113,-125.2"/>
<text text-anchor="start" x="116" y="-132.9" font-family="Helvetica,sans-Serif" font-size="11.00" fill="#000000">int[10]</text>
<polygon fill="none" stroke="#000000" points="10,-103.2 10,-125.2 113,-125.2 113,-103.2 10,-103.2"/>
<text text-anchor="start" x="30" y="-110.3" font-family="Helvetica,sans-Serif" font-size="11.00" fill="#000000">statut</text>
<polygon fill="none" stroke="#000000" points="113,-103.2 113,-125.2 180,-125.2 180,-103.2 113,-103.2"/>
<text text-anchor="start" x="116" y="-110.9" font-family="Helvetica,sans-Serif" font-size="11.00" fill="#000000">varchar[20]</text>
<polygon fill="none" stroke="#000000" points="10,-81.2 10,-103.2 113,-103.2 113,-81.2 10,-81.2"/>
<text text-anchor="start" x="30" y="-88.3" font-family="Helvetica,sans-Serif" font-size="11.00" fill="#000000">dateCreation</text>
<polygon fill="none" stroke="#000000" points="113,-81.2 113,-103.2 180,-103.2 180,-81.2 113,-81.2"/>
<text text-anchor="start" x="116" y="-88.9" font-family="Helvetica,sans-Serif" font-size="11.00" fill="#000000">varchar[10]</text>
<polygon fill="none" stroke="#000000" points="10,-59.2 10,-81.2 113,-81.2 113,-59.2 10,-59.2"/>
<text text-anchor="start" x="30" y="-66.3" font-family="Helvetica,sans-Serif" font-size="11.00" fill="#000000">type</text>
<polygon fill="none" stroke="#000000" points="113,-59.2 113,-81.2 180,-81.2 180,-59.2 113,-59.2"/>
<text text-anchor="start" x="115.9365" y="-66.9" font-family="Helvetica,sans-Serif" font-size="11.00" fill="#000000">varchar[255]</text>
<polygon fill="#ffffff" stroke="transparent" points="10,-40.2 10,-59.2 53,-59.2 53,-40.2 10,-40.2"/>
<polygon fill="none" stroke="#000000" points="10,-40.2 10,-59.2 53,-59.2 53,-40.2 10,-40.2"/>
<text text-anchor="start" x="13" y="-46.3" font-family="Helvetica,sans-Serif" font-size="11.00" fill="#000000">&lt; 0</text>
<polygon fill="#ffffff" stroke="transparent" points="53,-40.2 53,-59.2 113,-59.2 113,-40.2 53,-40.2"/>
<polygon fill="none" stroke="#000000" points="53,-40.2 53,-59.2 113,-59.2 113,-40.2 53,-40.2"/>
<text text-anchor="start" x="77.6105" y="-46.3" font-family="Helvetica,sans-Serif" font-size="11.00" fill="#000000">0 rows</text>
<polygon fill="#ffffff" stroke="transparent" points="113,-40.2 113,-59.2 180,-59.2 180,-40.2 113,-40.2"/>
<polygon fill="none" stroke="#000000" points="113,-40.2 113,-59.2 180,-59.2 180,-40.2 113,-40.2"/>
<text text-anchor="start" x="161.4053" y="-46.3" font-family="Helvetica,sans-Serif" font-size="11.00" fill="#000000">1 &gt;</text>
<polygon fill="none" stroke="#000000" stroke-width="2" points="9,-39.2 9,-215.2 181,-215.2 181,-39.2 9,-39.2"/>
</a>
</g>
</g>
<!-- livre&#45;&gt;media -->
<g id="edge1" class="edge">
<title>livre:w&#45;&gt;media:e</title>
<path fill="none" stroke="#000000" d="M221.045,-180.2C206.137,-180.2 198.9549,-180.2 180,-180.2"/>
<polygon fill="#000000" stroke="#000000" points="230.7,-176.2 230.7,-184.2 229.1,-184.2 229.1,-176.2 230.7,-176.2"/>
<polyline fill="none" stroke="#000000" points="231.5,-180.2 227.5,-180.2 "/>
<ellipse fill="none" stroke="#000000" cx="224.3" cy="-180.2001" rx="3.2" ry="3.2"/>
</g>
</g>
</svg>
